<svg xmlns="http://www.w3.org/2000/svg" xmlns:xlink="http://www.w3.org/1999/xlink" width="453" zoomAndPan="magnify" viewBox="0 0 340.5 79.499998" height="105" preserveAspectRatio="xMidYMid meet" version="1.0"><defs><clipPath id="4362cf356d"><path d="M 19 4 L 277 4 L 277 79.003906 L 19 79.003906 Z M 19 4 " clip-rule="nonzero"/></clipPath><clipPath id="55ee1c99e8"><path d="M 0.816406 2 L 13 2 L 13 15 L 0.816406 15 Z M 0.816406 2 " clip-rule="nonzero"/></clipPath></defs><g clip-path="url(#4362cf356d)"><path stroke-linecap="butt" transform="matrix(0.959322, 0.00484145, -0.00484145, 0.959322, 79.170445, 59.2755)" fill="none" stroke-linejoin="miter" d="M 0.000739729 5.498967 L 143.095019 5.501603 " stroke="#f78316" stroke-width="11" stroke-opacity="1" stroke-miterlimit="4"/></g><path fill="#f78316" d="M 110.863281 38.460938 L 110.863281 46.789062 L 80.28125 46.789062 L 80.28125 8.699219 L 110.160156 8.699219 L 110.160156 17.03125 L 90.945312 17.03125 L 90.945312 23.449219 L 107.867188 23.449219 L 107.867188 31.5 L 90.945312 31.5 L 90.945312 38.460938 Z M 110.863281 38.460938 " fill-opacity="1" fill-rule="nonzero"/><path fill="#f78316" d="M 121.582031 8.699219 L 132.363281 8.699219 L 132.363281 38.242188 L 150.535156 38.242188 L 150.535156 46.789062 L 121.582031 46.789062 Z M 121.582031 8.699219 " fill-opacity="1" fill-rule="nonzero"/><path fill="#f78316" d="M 172.890625 47.554688 C 169.8125 47.554688 166.824219 47.171875 163.914062 46.40625 C 161.015625 45.644531 158.660156 44.628906 156.851562 43.367188 L 160.390625 35.421875 C 162.09375 36.546875 164.066406 37.453125 166.308594 38.136719 C 168.558594 38.824219 170.773438 39.164062 172.949219 39.164062 C 177.078125 39.164062 179.148438 38.132812 179.148438 36.066406 C 179.148438 34.980469 178.558594 34.179688 177.382812 33.65625 C 176.210938 33.128906 174.316406 32.578125 171.699219 31.996094 C 168.828125 31.378906 166.433594 30.71875 164.515625 30.015625 C 162.597656 29.300781 160.949219 28.164062 159.566406 26.605469 C 158.1875 25.050781 157.496094 22.945312 157.496094 20.289062 C 157.496094 17.96875 158.132812 15.878906 159.40625 14.019531 C 160.675781 12.148438 162.570312 10.667969 165.089844 9.582031 C 167.605469 8.488281 170.695312 7.9375 174.359375 7.9375 C 176.863281 7.9375 179.332031 8.222656 181.761719 8.789062 C 184.1875 9.347656 186.332031 10.167969 188.179688 11.257812 L 184.859375 19.261719 C 181.238281 17.304688 177.722656 16.324219 174.316406 16.324219 C 172.171875 16.324219 170.605469 16.644531 169.628906 17.28125 C 168.648438 17.90625 168.160156 18.730469 168.160156 19.746094 C 168.160156 20.769531 168.738281 21.53125 169.894531 22.039062 C 171.058594 22.550781 172.925781 23.074219 175.503906 23.609375 C 178.414062 24.226562 180.816406 24.894531 182.714844 25.609375 C 184.617188 26.3125 186.265625 27.4375 187.667969 28.972656 C 189.066406 30.511719 189.765625 32.605469 189.765625 35.257812 C 189.765625 37.542969 189.128906 39.605469 187.859375 41.457031 C 186.582031 43.308594 184.675781 44.789062 182.144531 45.894531 C 179.605469 47 176.523438 47.554688 172.890625 47.554688 Z M 172.890625 47.554688 " fill-opacity="1" fill-rule="nonzero"/><path fill="#f78316" d="M 219.851562 33.128906 L 219.851562 46.789062 L 209.082031 46.789062 L 209.082031 32.96875 L 194.554688 8.699219 L 205.925781 8.699219 L 214.960938 23.832031 L 223.992188 8.699219 L 234.4375 8.699219 Z M 219.851562 33.128906 " fill-opacity="1" fill-rule="nonzero"/><path fill="#f78316" d="M 276.277344 46.789062 L 276.175781 26.605469 L 266.375 43.027344 L 261.585938 43.027344 L 251.847656 27.148438 L 251.847656 46.789062 L 241.890625 46.789062 L 241.890625 8.699219 L 250.761719 8.699219 L 264.144531 30.691406 L 277.203125 8.699219 L 286.074219 8.699219 L 286.175781 46.789062 Z M 276.277344 46.789062 " fill-opacity="1" fill-rule="nonzero"/><path fill="#f78316" d="M 324.046875 39.386719 L 307.949219 39.386719 L 304.953125 46.789062 L 293.964844 46.789062 L 310.785156 8.699219 L 321.390625 8.699219 L 338.253906 46.789062 L 327.046875 46.789062 Z M 320.90625 31.4375 L 316 19.261719 L 311.109375 31.4375 Z M 320.90625 31.4375 " fill-opacity="1" fill-rule="nonzero"/><path stroke-linecap="square" transform="matrix(0.242514, 0, 0, 0.241273, 34.265278, 164.656462)" fill="none" stroke-linejoin="bevel" d="M 83.324451 -518.214719 C 83.324451 -515.93191 83.227807 -513.649101 83.002305 -511.382482 C 82.760696 -509.115863 82.43855 -506.865434 82.003653 -504.647386 C 81.552649 -502.413147 80.988894 -500.195098 80.328495 -498.02562 C 79.684203 -495.856142 78.911053 -493.702854 78.041259 -491.598137 C 77.171465 -489.493419 76.188921 -487.453462 75.125839 -485.429695 C 74.046651 -483.422119 72.886926 -481.479302 71.630557 -479.585057 C 70.358081 -477.690811 69.005068 -475.861326 67.555412 -474.112791 C 66.105756 -472.348066 64.575563 -470.664292 62.980941 -469.061469 C 61.354105 -467.442455 59.678946 -465.920583 57.923251 -464.479661 C 56.167557 -463.038739 54.331325 -461.678767 52.430665 -460.415937 C 50.546112 -459.153106 48.597129 -457.987417 46.599825 -456.902678 C 44.586414 -455.834129 42.540788 -454.862721 40.430732 -453.988453 C 38.320677 -453.130376 36.178407 -452.35325 34.003923 -451.689454 C 31.829438 -451.041849 29.622739 -450.475194 27.399933 -450.03806 C 25.144912 -449.600927 22.905998 -449.260934 20.63487 -449.034272 C 18.379849 -448.8238 16.108721 -448.694279 13.821486 -448.694279 C 11.550358 -448.694279 9.279229 -448.8238 7.008101 -449.034272 C 4.75308 -449.260934 2.498059 -449.600927 0.275253 -450.03806 C -1.96366 -450.475194 -4.170359 -451.041849 -6.344844 -451.689454 C -8.519328 -452.35325 -10.661598 -453.130376 -12.755546 -453.988453 C -14.865601 -454.862721 -16.927335 -455.834129 -18.924639 -456.902678 C -20.93805 -457.987417 -22.887033 -459.153106 -24.787693 -460.415937 C -26.672246 -461.678767 -28.49237 -463.038739 -30.264173 -464.479661 C -32.019867 -465.920583 -33.711133 -467.442455 -35.305755 -469.061469 C -36.932592 -470.664292 -38.446677 -472.348066 -39.896333 -474.112791 C -41.329882 -475.861326 -42.699002 -477.690811 -43.955371 -479.585057 C -45.227847 -481.479302 -46.387572 -483.422119 -47.466761 -485.429695 C -48.545949 -487.453462 -49.512387 -489.493419 -50.38218 -491.598137 C -51.251974 -493.702854 -52.009017 -495.856142 -52.685523 -498.02562 C -53.345922 -500.195098 -53.89357 -502.413147 -54.328467 -504.647386 C -54.779471 -506.865434 -55.117724 -509.115863 -55.343226 -511.382482 C -55.552621 -513.649101 -55.681479 -515.93191 -55.681479 -518.214719 C -55.681479 -520.481337 -55.552621 -522.747956 -55.343226 -525.014575 C -55.117724 -527.281194 -54.779471 -529.531623 -54.328467 -531.749671 C -53.89357 -533.98391 -53.345922 -536.201959 -52.685523 -538.371437 C -52.009017 -540.557105 -51.251974 -542.694203 -50.38218 -544.79892 C -49.512387 -546.903638 -48.545949 -548.959785 -47.466761 -550.967362 C -46.387572 -552.974938 -45.227847 -554.917754 -43.955371 -556.812 C -42.699002 -558.706246 -41.329882 -560.535731 -39.896333 -562.284266 C -38.446677 -564.048991 -36.932592 -565.732765 -35.305755 -567.335588 C -33.711133 -568.954601 -32.019867 -570.476474 -30.264173 -571.917396 C -28.49237 -573.358318 -26.672246 -574.71829 -24.787693 -575.98112 C -22.887033 -577.243951 -20.93805 -578.42583 -18.924639 -579.494379 C -16.927335 -580.562928 -14.865601 -581.534336 -12.755546 -582.408604 C -10.661598 -583.266681 -8.519328 -584.043807 -6.344844 -584.707603 C -4.170359 -585.371398 -1.96366 -585.921863 0.275253 -586.358997 C 2.498059 -586.81232 4.75308 -587.136123 7.008101 -587.362785 C 9.279229 -587.589447 11.550358 -587.702778 13.821486 -587.702778 C 16.108721 -587.702778 18.379849 -587.589447 20.63487 -587.362785 C 22.905998 -587.136123 25.144912 -586.81232 27.399933 -586.358997 C 29.622739 -585.921863 31.829438 -585.371398 34.003923 -584.707603 C 36.178407 -584.043807 38.320677 -583.266681 40.430732 -582.408604 C 42.540788 -581.534336 44.586414 -580.562928 46.599825 -579.494379 C 48.597129 -578.42583 50.546112 -577.243951 52.430665 -575.98112 C 54.331325 -574.71829 56.167557 -573.358318 57.923251 -571.917396 C 59.678946 -570.476474 61.354105 -568.954601 62.980941 -567.335588 C 64.575563 -565.732765 66.105756 -564.048991 67.555412 -562.284266 C 69.005068 -560.535731 70.358081 -558.706246 71.630557 -556.812 C 72.886926 -554.917754 74.046651 -552.974938 75.125839 -550.967362 C 76.188921 -548.959785 77.171465 -546.903638 78.041259 -544.79892 C 78.911053 -542.694203 79.684203 -540.557105 80.328495 -538.371437 C 80.988894 -536.201959 81.552649 -533.98391 82.003653 -531.749671 C 82.43855 -529.531623 82.760696 -527.281194 83.002305 -525.014575 C 83.227807 -522.747956 83.324451 -520.481337 83.324451 -518.214719 Z M 83.324451 -518.214719 " stroke="#ff7b00" stroke-width="12" stroke-opacity="1" stroke-miterlimit="4"/><path stroke-linecap="square" transform="matrix(0.242514, 0, 0, 0.241273, 27.482546, 185.504802)" fill="none" stroke-linejoin="bevel" d="M -55.675366 -587.689422 C -49.731775 -552.540639 -25.055403 -523.430776 8.624944 -511.806259 C 42.353614 -500.165552 79.706424 -507.855866 106.090169 -531.833456 " stroke="#f78316" stroke-width="12" stroke-opacity="1" stroke-miterlimit="4"/><path stroke-linecap="square" transform="matrix(0.242514, 0, 0, 0.241273, 72.353862, 181.631653)" fill="none" stroke-linejoin="bevel" d="M -55.676284 -547.189375 C -49.861552 -559.914822 -46.865596 -573.725007 -46.865596 -587.697093 " stroke="#f78316" stroke-width="12" stroke-opacity="1" stroke-miterlimit="4"/><path stroke-linecap="square" transform="matrix(0.242514, 0, 0, 0.241273, 23.877308, 150.544845)" fill="none" stroke-linejoin="bevel" d="M -55.660211 -587.563964 L 4.581062 -587.709675 L 4.468311 -544.951529 " stroke="#ff7b00" stroke-width="11" stroke-opacity="1" stroke-miterlimit="4"/><path stroke-linecap="square" transform="matrix(0.242514, 0, 0, 0.241273, 27.403582, 204.901617)" fill="none" stroke-linejoin="bevel" d="M 20.177331 -587.715076 L -9.878876 -564.725085 L -55.671907 -564.725085 " stroke="#f78316" stroke-width="11" stroke-opacity="1" stroke-miterlimit="4"/><path stroke-linecap="square" transform="matrix(0.242514, 0, 0, 0.241273, 56.799175, 204.861208)" fill="none" stroke-linejoin="bevel" d="M -55.660177 -587.709495 L -55.418568 -565.949954 L 18.836048 -565.949954 " stroke="#f78316" stroke-width="11" stroke-opacity="1" stroke-miterlimit="4"/><path stroke-linecap="square" transform="matrix(0.242514, 0, 0, 0.241273, 38.99204, 168.477936)" fill="none" stroke-linejoin="bevel" d="M -21.116053 -498.062812 L -21.01941 -524.404161 L 8.859617 -524.404161 L 8.762973 -497.981861 C -7.972503 -497.981861 -24.88516 -497.544727 -41.620636 -497.544727 L -41.169632 -537.890544 L -55.666195 -537.890544 L -5.636946 -587.691399 L 43.957407 -537.890544 L -41.411241 -537.890544 L 29.348093 -537.890544 L 29.54138 -497.90091 C 3.866357 -498.046622 -13.014085 -498.111382 -21.116053 -498.062812 Z M -21.116053 -498.062812 " stroke="#f78316" stroke-width="12" stroke-opacity="1" stroke-miterlimit="4"/><path stroke-linecap="square" transform="matrix(0.242514, 0, 0, 0.241273, 34.631912, 215.326268)" fill="none" stroke-linejoin="miter" d="M -55.679195 -587.71039 L -55.64698 -587.71039 " stroke="#f78316" stroke-width="11" stroke-opacity="1" stroke-miterlimit="2"/><path stroke-linecap="square" transform="matrix(0.242514, 0, 0, 0.241273, 72.222253, 204.709846)" fill="none" stroke-linejoin="miter" d="M -55.665139 -587.697376 L -55.632925 -587.697376 " stroke="#ff7b00" stroke-width="11" stroke-opacity="1" stroke-miterlimit="2"/><path stroke-linecap="square" transform="matrix(0.242514, 0, 0, 0.241273, 84.832592, 190.856699)" fill="none" stroke-linejoin="miter" d="M -55.669112 -587.706997 L -55.636897 -587.706997 " stroke="#f78316" stroke-width="11" stroke-opacity="1" stroke-miterlimit="2"/><path stroke-linecap="square" transform="matrix(0.242514, 0, 0, 0.241273, 62.763096, 175.27478)" fill="none" stroke-linejoin="miter" d="M -55.67248 -587.69127 L -55.640265 -587.69127 " stroke="#f78316" stroke-width="11" stroke-opacity="1" stroke-miterlimit="2"/><path stroke-linecap="square" transform="matrix(0.242514, 0, 0, 0.241273, 42.634878, 171.655442)" fill="none" stroke-linejoin="miter" d="M -55.659211 -587.69855 L -55.626996 -587.69855 " stroke="#f78316" stroke-width="11" stroke-opacity="1" stroke-miterlimit="2"/><path stroke-linecap="square" transform="matrix(0.242514, 0, 0, 0.241273, 27.598175, 155.972876)" fill="none" stroke-linejoin="miter" d="M -55.668939 -587.686618 L -55.636725 -587.686618 " stroke="#f78316" stroke-width="11" stroke-opacity="1" stroke-miterlimit="2"/><path stroke-linecap="square" transform="matrix(0.242514, 0, 0, 0.241273, 17.170726, 172.379297)" fill="none" stroke-linejoin="miter" d="M -55.67817 -587.703517 L -55.645956 -587.703517 " stroke="#f78316" stroke-width="11" stroke-opacity="1" stroke-miterlimit="2"/><path stroke-linecap="square" transform="matrix(0.242514, 0, 0, 0.241273, 27.920628, 158.106914)" fill="none" stroke-linejoin="bevel" d="M 39.033111 -587.691698 C -5.664625 -587.788839 -44.708701 -557.448526 -55.661659 -514.107535 " stroke="#f78316" stroke-width="12" stroke-opacity="1" stroke-miterlimit="4"/><path stroke-linecap="square" transform="matrix(0.246867, 0, 0, 0.245607, 69.262862, 148.254785)" fill="none" stroke-linejoin="bevel" d="M 7.321556 -516.516814 C 6.925973 -550.409218 -20.796443 -577.589939 -54.689946 -577.319564 " stroke="#f78316" stroke-width="12" stroke-opacity="1" stroke-miterlimit="4"/><path stroke-linecap="square" transform="matrix(0.282628, 0, 0, 0.277279, 69.307981, 157.225087)" fill="none" stroke-linejoin="bevel" d="M -26.271887 -490.377104 C -26.271887 -501.985456 -35.891425 -511.382022 -47.777635 -511.382022 " stroke="#f78316" stroke-width="11" stroke-opacity="1" stroke-miterlimit="4"/><path stroke-linecap="square" transform="matrix(0.242514, 0, 0, 0.241273, 69.225262, 152.831149)" fill="none" stroke-linejoin="bevel" d="M -11.1731 -544.34106 C -11.801284 -568.480551 -31.548824 -587.698241 -55.661441 -587.698241 " stroke="#ff7b00" stroke-width="12" stroke-opacity="1" stroke-miterlimit="4"/><g clip-path="url(#55ee1c99e8)"><path stroke-linecap="square" transform="matrix(0.242514, 0, 0, 0.241273, 15.854604, 146.7149)" fill="none" stroke-linejoin="bevel" d="M -23.674155 -571.204385 C -23.674155 -570.103456 -23.770798 -569.051097 -23.980193 -567.982548 C -24.189588 -566.913999 -24.495626 -565.877831 -24.882201 -564.890233 C -25.284884 -563.886444 -25.78421 -562.931226 -26.364072 -562.024579 C -26.943935 -561.134121 -27.604334 -560.292234 -28.345269 -559.531298 C -29.086205 -558.770362 -29.907677 -558.090376 -30.77747 -557.475151 C -31.647264 -556.876116 -32.581487 -556.374222 -33.547925 -555.953278 C -34.514362 -555.548525 -35.513014 -555.224722 -36.543881 -555.01425 C -37.574748 -554.803779 -38.621722 -554.706638 -39.684803 -554.706638 C -40.71567 -554.706638 -41.762644 -554.803779 -42.79351 -555.01425 C -43.824377 -555.224722 -44.823029 -555.548525 -45.789467 -555.953278 C -46.772011 -556.374222 -47.690127 -556.876116 -48.559921 -557.475151 C -49.429715 -558.090376 -50.251186 -558.770362 -50.992122 -559.531298 C -51.733057 -560.292234 -52.393456 -561.134121 -52.973319 -562.024579 C -53.569289 -562.931226 -54.052507 -563.886444 -54.45519 -564.890233 C -54.857872 -565.877831 -55.147803 -566.913999 -55.357198 -567.982548 C -55.566593 -569.051097 -55.663237 -570.103456 -55.663237 -571.204385 C -55.663237 -572.289124 -55.566593 -573.357673 -55.357198 -574.410032 C -55.147803 -575.478581 -54.857872 -576.51475 -54.45519 -577.502348 C -54.052507 -578.506136 -53.569289 -579.477544 -52.973319 -580.368002 C -52.393456 -581.274649 -51.733057 -582.100346 -50.992122 -582.861282 C -50.251186 -583.622219 -49.429715 -584.318395 -48.559921 -584.91743 C -47.690127 -585.516465 -46.772011 -586.034549 -45.789467 -586.439302 C -44.823029 -586.860246 -43.824377 -587.167858 -42.79351 -587.37833 C -41.762644 -587.604992 -40.71567 -587.702133 -39.684803 -587.702133 C -38.621722 -587.702133 -37.574748 -587.604992 -36.543881 -587.37833 C -35.513014 -587.167858 -34.514362 -586.860246 -33.547925 -586.439302 C -32.581487 -586.034549 -31.647264 -585.516465 -30.77747 -584.91743 C -29.907677 -584.318395 -29.086205 -583.622219 -28.345269 -582.861282 C -27.604334 -582.100346 -26.943935 -581.274649 -26.364072 -580.368002 C -25.78421 -579.477544 -25.284884 -578.506136 -24.882201 -577.502348 C -24.495626 -576.51475 -24.189588 -575.478581 -23.980193 -574.410032 C -23.770798 -573.357673 -23.674155 -572.289124 -23.674155 -571.204385 Z M -23.674155 -571.204385 " stroke="#f78316" stroke-width="12" stroke-opacity="1" stroke-miterlimit="4"/></g><path stroke-linecap="square" transform="matrix(0.242514, 0, 0, 0.241273, 23.634765, 176.511939)" fill="none" stroke-linejoin="bevel" d="M -23.669662 -571.188872 C -23.669662 -570.120323 -23.766305 -569.051774 -23.9757 -567.983225 C -24.185095 -566.914676 -24.491134 -565.878507 -24.893816 -564.890909 C -25.280391 -563.887121 -25.795824 -562.931903 -26.359579 -562.025255 C -26.955549 -561.134798 -27.615948 -560.292911 -28.356884 -559.531975 C -29.097819 -558.771038 -29.903184 -558.091053 -30.789085 -557.475827 C -31.642771 -556.876792 -32.576994 -556.374898 -33.543432 -555.953955 C -34.525976 -555.549201 -35.524629 -555.225399 -36.555495 -555.014927 C -37.586362 -554.804455 -38.617229 -554.691124 -39.68031 -554.691124 C -40.711177 -554.691124 -41.758151 -554.804455 -42.789017 -555.014927 C -43.819884 -555.225399 -44.818536 -555.549201 -45.784974 -555.953955 C -46.767518 -556.374898 -47.685634 -556.876792 -48.555428 -557.475827 C -49.441329 -558.091053 -50.246694 -558.771038 -50.987629 -559.531975 C -51.728564 -560.292911 -52.388963 -561.134798 -52.968826 -562.025255 C -53.564796 -562.931903 -54.048014 -563.887121 -54.450697 -564.890909 C -54.853379 -565.878507 -55.159418 -566.914676 -55.352705 -567.983225 C -55.578207 -569.051774 -55.658744 -570.120323 -55.658744 -571.188872 C -55.658744 -572.289801 -55.578207 -573.35835 -55.352705 -574.426899 C -55.159418 -575.479257 -54.853379 -576.499236 -54.450697 -577.503024 C -54.048014 -578.523003 -53.564796 -579.462031 -52.968826 -580.368678 C -52.388963 -581.275326 -51.728564 -582.101023 -50.987629 -582.861959 C -50.246694 -583.622895 -49.441329 -584.319071 -48.555428 -584.918106 C -47.685634 -585.517141 -46.767518 -586.035225 -45.784974 -586.439979 C -44.818536 -586.860922 -43.819884 -587.168535 -42.789017 -587.395197 C -41.758151 -587.605669 -40.711177 -587.686619 -39.68031 -587.686619 C -38.617229 -587.686619 -37.586362 -587.605669 -36.555495 -587.395197 C -35.524629 -587.168535 -34.525976 -586.860922 -33.543432 -586.439979 C -32.576994 -586.035225 -31.642771 -585.517141 -30.789085 -584.918106 C -29.903184 -584.319071 -29.097819 -583.622895 -28.356884 -582.861959 C -27.615948 -582.101023 -26.955549 -581.275326 -26.359579 -580.368678 C -25.795824 -579.462031 -25.280391 -578.523003 -24.893816 -577.503024 C -24.491134 -576.499236 -24.185095 -575.479257 -23.9757 -574.426899 C -23.766305 -573.35835 -23.669662 -572.289801 -23.669662 -571.188872 Z M -23.669662 -571.188872 " stroke="#f78316" stroke-width="12" stroke-opacity="1" stroke-miterlimit="4"/><path stroke-linecap="square" transform="matrix(0.242514, 0, 0, 0.241273, 65.468668, 191.972602)" fill="none" stroke-linejoin="bevel" d="M -23.677382 -571.203927 C -23.677382 -570.119188 -23.774026 -569.034449 -23.967314 -567.98209 C -24.192816 -566.929731 -24.482747 -565.893562 -24.885429 -564.889774 C -25.288112 -563.869795 -25.787438 -562.930768 -26.3673 -562.04031 C -26.96327 -561.133663 -27.607562 -560.307966 -28.348497 -559.547029 C -29.10554 -558.769903 -29.910904 -558.073727 -30.780698 -557.490882 C -31.650492 -556.875657 -32.568608 -556.373763 -33.535045 -555.96901 C -34.51759 -555.531876 -35.516242 -555.240454 -36.563216 -555.013792 C -37.577975 -554.80332 -38.608842 -554.706179 -39.671923 -554.706179 C -40.718897 -554.706179 -41.765871 -554.80332 -42.796738 -555.013792 C -43.827605 -555.240454 -44.826257 -555.531876 -45.792694 -555.96901 C -46.759132 -556.373763 -47.693355 -556.875657 -48.563149 -557.490882 C -49.432942 -558.073727 -50.238307 -558.769903 -50.979242 -559.547029 C -51.736285 -560.307966 -52.396684 -561.133663 -52.976547 -562.04031 C -53.556409 -562.930768 -54.039628 -563.869795 -54.458418 -564.889774 C -54.844993 -565.893562 -55.151031 -566.929731 -55.360426 -567.98209 C -55.569821 -569.034449 -55.666464 -570.119188 -55.666464 -571.203927 C -55.666464 -572.272475 -55.569821 -573.357215 -55.360426 -574.425763 C -55.151031 -575.478122 -54.844993 -576.514291 -54.458418 -577.518079 C -54.039628 -578.521868 -53.556409 -579.460895 -52.976547 -580.367543 C -52.396684 -581.274191 -51.736285 -582.099887 -50.979242 -582.877014 C -50.238307 -583.63795 -49.432942 -584.317936 -48.563149 -584.916971 C -47.693355 -585.516006 -46.759132 -586.0179 -45.792694 -586.455034 C -44.826257 -586.859787 -43.827605 -587.1674 -42.796738 -587.377871 C -41.765871 -587.588343 -40.718897 -587.701674 -39.671923 -587.701674 C -38.608842 -587.701674 -37.577975 -587.588343 -36.563216 -587.377871 C -35.516242 -587.1674 -34.51759 -586.859787 -33.535045 -586.455034 C -32.568608 -586.0179 -31.650492 -585.516006 -30.780698 -584.916971 C -29.910904 -584.317936 -29.10554 -583.63795 -28.348497 -582.877014 C -27.607562 -582.099887 -26.96327 -581.274191 -26.3673 -580.367543 C -25.787438 -579.460895 -25.288112 -578.521868 -24.885429 -577.518079 C -24.482747 -576.514291 -24.192816 -575.478122 -23.967314 -574.425763 C -23.774026 -573.357215 -23.677382 -572.272475 -23.677382 -571.203927 Z M -23.677382 -571.203927 " stroke="#f78316" stroke-width="12" stroke-opacity="1" stroke-miterlimit="4"/><path stroke-linecap="square" transform="matrix(0.242514, 0, 0, 0.241273, 75.290701, 206.308948)" fill="none" stroke-linejoin="bevel" d="M -23.668368 -571.18943 C -23.668368 -570.120881 -23.765012 -569.052332 -23.990514 -567.983783 C -24.183802 -566.915234 -24.48984 -565.879065 -24.892522 -564.875277 C -25.279097 -563.887679 -25.778424 -562.932461 -26.358286 -562.025813 C -26.954256 -561.135356 -27.614655 -560.293469 -28.35559 -559.532533 C -29.096526 -558.755406 -29.90189 -558.07542 -30.787791 -557.476385 C -31.657585 -556.87735 -32.575701 -556.375456 -33.558246 -555.954513 C -34.524683 -555.549759 -35.523335 -555.225957 -36.554202 -555.015485 C -37.585069 -554.805013 -38.632043 -554.691682 -39.662909 -554.691682 C -40.709883 -554.691682 -41.756857 -554.805013 -42.787724 -555.015485 C -43.818591 -555.225957 -44.817243 -555.549759 -45.78368 -555.954513 C -46.750118 -556.375456 -47.684341 -556.87735 -48.554134 -557.476385 C -49.440036 -558.07542 -50.2454 -558.755406 -50.986336 -559.532533 C -51.727271 -560.293469 -52.38767 -561.135356 -52.98364 -562.025813 C -53.547395 -562.932461 -54.062828 -563.887679 -54.449403 -564.875277 C -54.852086 -565.879065 -55.158124 -566.915234 -55.351412 -567.983783 C -55.576914 -569.052332 -55.673558 -570.120881 -55.673558 -571.18943 C -55.673558 -572.274169 -55.576914 -573.358908 -55.351412 -574.427457 C -55.158124 -575.479816 -54.852086 -576.499794 -54.449403 -577.519773 C -54.062828 -578.523561 -53.547395 -579.462589 -52.98364 -580.369236 C -52.38767 -581.275884 -51.727271 -582.101581 -50.986336 -582.862517 C -50.2454 -583.623453 -49.440036 -584.319629 -48.554134 -584.918664 C -47.684341 -585.517699 -46.750118 -586.035783 -45.78368 -586.440537 C -44.817243 -586.86148 -43.818591 -587.169093 -42.787724 -587.395755 C -41.756857 -587.590036 -40.709883 -587.687177 -39.662909 -587.687177 C -38.632043 -587.687177 -37.585069 -587.590036 -36.554202 -587.395755 C -35.523335 -587.169093 -34.524683 -586.86148 -33.558246 -586.440537 C -32.575701 -586.035783 -31.657585 -585.517699 -30.787791 -584.918664 C -29.90189 -584.319629 -29.096526 -583.623453 -28.35559 -582.862517 C -27.614655 -582.101581 -26.954256 -581.275884 -26.358286 -580.369236 C -25.778424 -579.462589 -25.279097 -578.523561 -24.892522 -577.519773 C -24.48984 -576.499794 -24.183802 -575.479816 -23.990514 -574.427457 C -23.765012 -573.358908 -23.668368 -572.274169 -23.668368 -571.18943 Z M -23.668368 -571.18943 " stroke="#f78316" stroke-width="12" stroke-opacity="1" stroke-miterlimit="4"/><path stroke-linecap="square" transform="matrix(0.242514, 0, 0, 0.241273, 19.269941, 206.66993)" fill="none" stroke-linejoin="bevel" d="M -23.679411 -571.196089 C -23.679411 -570.12754 -23.776054 -569.042801 -23.969342 -567.974252 C -24.194844 -566.905703 -24.484775 -565.885725 -24.887457 -564.881936 C -25.29014 -563.878148 -25.773359 -562.93912 -26.369328 -562.032472 C -26.949191 -561.125825 -27.60959 -560.300128 -28.350525 -559.523001 C -29.091461 -558.762065 -29.912933 -558.082079 -30.782726 -557.466854 C -31.65252 -556.884009 -32.570636 -556.365925 -33.553181 -555.944982 C -34.519618 -555.540228 -35.51827 -555.216426 -36.549137 -555.022144 C -37.580004 -554.811672 -38.61087 -554.698341 -39.657844 -554.698341 C -40.720926 -554.698341 -41.7679 -554.811672 -42.798766 -555.022144 C -43.829633 -555.216426 -44.828285 -555.540228 -45.794723 -555.944982 C -46.76116 -556.365925 -47.695383 -556.884009 -48.565177 -557.466854 C -49.434971 -558.082079 -50.240335 -558.762065 -50.997378 -559.523001 C -51.738313 -560.300128 -52.382605 -561.125825 -52.978575 -562.032472 C -53.558437 -562.93912 -54.041656 -563.878148 -54.460446 -564.881936 C -54.847021 -565.885725 -55.153059 -566.905703 -55.362454 -567.974252 C -55.555742 -569.042801 -55.668493 -570.12754 -55.668493 -571.196089 C -55.668493 -572.280828 -55.555742 -573.349377 -55.362454 -574.417926 C -55.153059 -575.486475 -54.847021 -576.522643 -54.460446 -577.526432 C -54.041656 -578.51403 -53.558437 -579.469248 -52.978575 -580.359705 C -52.382605 -581.266353 -51.738313 -582.10824 -50.997378 -582.869176 C -50.240335 -583.646303 -49.434971 -584.326288 -48.565177 -584.909133 C -47.695383 -585.524358 -46.76116 -586.026252 -45.794723 -586.431006 C -44.828285 -586.868139 -43.829633 -587.175752 -42.798766 -587.386224 C -41.7679 -587.596695 -40.720926 -587.710026 -39.657844 -587.710026 C -38.61087 -587.710026 -37.580004 -587.596695 -36.549137 -587.386224 C -35.51827 -587.175752 -34.519618 -586.868139 -33.553181 -586.431006 C -32.570636 -586.026252 -31.65252 -585.524358 -30.782726 -584.909133 C -29.912933 -584.326288 -29.091461 -583.646303 -28.350525 -582.869176 C -27.60959 -582.10824 -26.949191 -581.266353 -26.369328 -580.359705 C -25.773359 -579.469248 -25.29014 -578.51403 -24.887457 -577.526432 C -24.484775 -576.522643 -24.194844 -575.486475 -23.969342 -574.417926 C -23.776054 -573.349377 -23.679411 -572.280828 -23.679411 -571.196089 Z M -23.679411 -571.196089 " stroke="#ff7b00" stroke-width="12" stroke-opacity="1" stroke-miterlimit="4"/><path stroke-linecap="square" transform="matrix(0.242514, 0, 0, 0.241273, 59.469022, 159.727619)" fill="none" stroke-linejoin="bevel" d="M -54.202161 -587.107243 C -54.701487 -587.301524 -55.184706 -587.511996 -55.667924 -587.706278 " stroke="#f78316" stroke-width="12" stroke-opacity="1" stroke-miterlimit="4"/><path stroke-linecap="square" transform="matrix(0.242514, 0, 0, 0.241273, 63.67874, 161.873828)" fill="none" stroke-linejoin="bevel" d="M -54.293776 -586.790393 C -54.74478 -587.098006 -55.195784 -587.405618 -55.679003 -587.713231 " stroke="#f78316" stroke-width="12" stroke-opacity="1" stroke-miterlimit="4"/><path stroke-linecap="square" transform="matrix(0.242514, 0, 0, 0.241273, 67.246368, 164.686568)" fill="none" stroke-linejoin="bevel" d="M -54.508209 -586.564726 C -54.894784 -586.937099 -55.281359 -587.325663 -55.667934 -587.698036 " stroke="#f78316" stroke-width="12" stroke-opacity="1" stroke-miterlimit="4"/><path stroke-linecap="square" transform="matrix(0.242514, 0, 0, 0.241273, 70.235851, 168.169593)" fill="none" stroke-linejoin="bevel" d="M -54.77088 -586.38104 C -55.076919 -586.834364 -55.36685 -587.255307 -55.672889 -587.692441 " stroke="#f78316" stroke-width="12" stroke-opacity="1" stroke-miterlimit="4"/><path stroke-linecap="square" transform="matrix(0.242514, 0, 0, 0.241273, 72.505219, 172.196899)" fill="none" stroke-linejoin="bevel" d="M -55.027923 -586.218982 C -55.237318 -586.704686 -55.446713 -587.20658 -55.672215 -587.692284 " stroke="#f78316" stroke-width="12" stroke-opacity="1" stroke-miterlimit="4"/><path stroke-linecap="square" transform="matrix(0.242514, 0, 0, 0.241273, 73.782804, 176.515695)" fill="none" stroke-linejoin="bevel" d="M -55.334956 -586.131745 C -55.4316 -586.66602 -55.544351 -587.184104 -55.673209 -587.702188 " stroke="#f78316" stroke-width="12" stroke-opacity="1" stroke-miterlimit="4"/><path stroke-linecap="square" transform="matrix(0.212272, -0.116684, 0.117276, 0.211181, 55.065652, 158.350392)" fill="none" stroke-linejoin="bevel" d="M 236.945269 -540.151952 C 236.450236 -540.554952 235.961472 -540.935991 235.45861 -541.32482 " stroke="#f78316" stroke-width="12" stroke-opacity="1" stroke-miterlimit="4"/><path fill="#ff914d" d="M 221.59375 61.152344 L 222.34375 61.152344 L 222.34375 68.9375 L 221.59375 68.9375 Z M 221.59375 61.152344 " fill-opacity="1" fill-rule="nonzero"/><path fill="#ff914d" d="M 226.144531 61.152344 L 226.890625 61.152344 L 226.890625 68.9375 L 226.144531 68.9375 Z M 226.144531 61.152344 " fill-opacity="1" fill-rule="nonzero"/><path fill="#ff914d" d="M 230.691406 61.152344 L 231.441406 61.152344 L 231.441406 68.9375 L 230.691406 68.9375 Z M 230.691406 61.152344 " fill-opacity="1" fill-rule="nonzero"/><path fill="#ff914d" d="M 235.238281 61.152344 L 235.988281 61.152344 L 235.988281 68.9375 L 235.238281 68.9375 Z M 235.238281 61.152344 " fill-opacity="1" fill-rule="nonzero"/><path fill="#ff914d" d="M 239.785156 61.152344 L 240.535156 61.152344 L 240.535156 68.9375 L 239.785156 68.9375 Z M 239.785156 61.152344 " fill-opacity="1" fill-rule="nonzero"/><path fill="#ff914d" d="M 244.335938 61.152344 L 245.082031 61.152344 L 245.082031 68.9375 L 244.335938 68.9375 Z M 244.335938 61.152344 " fill-opacity="1" fill-rule="nonzero"/><path fill="#ff914d" d="M 248.882812 61.152344 L 249.632812 61.152344 L 249.632812 68.9375 L 248.882812 68.9375 Z M 248.882812 61.152344 " fill-opacity="1" fill-rule="nonzero"/><path fill="#ff914d" d="M 253.429688 61.152344 L 254.179688 61.152344 L 254.179688 68.9375 L 253.429688 68.9375 Z M 253.429688 61.152344 " fill-opacity="1" fill-rule="nonzero"/><path fill="#ff914d" d="M 257.976562 61.152344 L 258.726562 61.152344 L 258.726562 68.9375 L 257.976562 68.9375 Z M 257.976562 61.152344 " fill-opacity="1" fill-rule="nonzero"/><path fill="#ff914d" d="M 262.527344 61.152344 L 263.273438 61.152344 L 263.273438 68.9375 L 262.527344 68.9375 Z M 262.527344 61.152344 " fill-opacity="1" fill-rule="nonzero"/><path fill="#ff914d" d="M 267.074219 61.152344 L 267.824219 61.152344 L 267.824219 68.9375 L 267.074219 68.9375 Z M 267.074219 61.152344 " fill-opacity="1" fill-rule="nonzero"/><path fill="#ff914d" d="M 271.621094 61.152344 L 272.371094 61.152344 L 272.371094 68.9375 L 271.621094 68.9375 Z M 271.621094 61.152344 " fill-opacity="1" fill-rule="nonzero"/><path fill="#ff914d" d="M 276.167969 61.152344 L 276.917969 61.152344 L 276.917969 68.9375 L 276.167969 68.9375 Z M 276.167969 61.152344 " fill-opacity="1" fill-rule="nonzero"/><path fill="#ff914d" d="M 280.71875 61.152344 L 281.464844 61.152344 L 281.464844 68.9375 L 280.71875 68.9375 Z M 280.71875 61.152344 " fill-opacity="1" fill-rule="nonzero"/><path fill="#ff914d" d="M 285.265625 61.152344 L 286.015625 61.152344 L 286.015625 68.9375 L 285.265625 68.9375 Z M 285.265625 61.152344 " fill-opacity="1" fill-rule="nonzero"/><path fill="#ff914d" d="M 289.8125 61.152344 L 290.5625 61.152344 L 290.5625 68.9375 L 289.8125 68.9375 Z M 289.8125 61.152344 " fill-opacity="1" fill-rule="nonzero"/><path fill="#ff914d" d="M 294.359375 61.152344 L 295.109375 61.152344 L 295.109375 68.9375 L 294.359375 68.9375 Z M 294.359375 61.152344 " fill-opacity="1" fill-rule="nonzero"/><path fill="#ff914d" d="M 298.910156 61.152344 L 299.660156 61.152344 L 299.660156 68.9375 L 298.910156 68.9375 Z M 298.910156 61.152344 " fill-opacity="1" fill-rule="nonzero"/><path fill="#ff914d" d="M 303.457031 61.152344 L 304.207031 61.152344 L 304.207031 68.9375 L 303.457031 68.9375 Z M 303.457031 61.152344 " fill-opacity="1" fill-rule="nonzero"/><path fill="#ff914d" d="M 308.003906 61.152344 L 308.753906 61.152344 L 308.753906 68.9375 L 308.003906 68.9375 Z M 308.003906 61.152344 " fill-opacity="1" fill-rule="nonzero"/><path fill="#ff914d" d="M 312.550781 61.152344 L 313.300781 61.152344 L 313.300781 68.9375 L 312.550781 68.9375 Z M 312.550781 61.152344 " fill-opacity="1" fill-rule="nonzero"/><path fill="#ff914d" d="M 317.101562 61.152344 L 317.851562 61.152344 L 317.851562 68.9375 L 317.101562 68.9375 Z M 317.101562 61.152344 " fill-opacity="1" fill-rule="nonzero"/><path fill="#ff914d" d="M 321.648438 61.152344 L 322.398438 61.152344 L 322.398438 68.9375 L 321.648438 68.9375 Z M 321.648438 61.152344 " fill-opacity="1" fill-rule="nonzero"/><path fill="#ff914d" d="M 326.195312 61.152344 L 326.945312 61.152344 L 326.945312 68.9375 L 326.195312 68.9375 Z M 326.195312 61.152344 " fill-opacity="1" fill-rule="nonzero"/><path fill="#ff914d" d="M 330.746094 61.152344 L 331.492188 61.152344 L 331.492188 68.9375 L 330.746094 68.9375 Z M 330.746094 61.152344 " fill-opacity="1" fill-rule="nonzero"/><path fill="#ff914d" d="M 335.292969 61.152344 L 336.042969 61.152344 L 336.042969 68.9375 L 335.292969 68.9375 Z M 335.292969 61.152344 " fill-opacity="1" fill-rule="nonzero"/></svg>