<svg width="85" height="61" viewBox="0 0 85 61" fill="none" xmlns="http://www.w3.org/2000/svg">
<path fill-rule="evenodd" clip-rule="evenodd" d="M64.3854 6.48886C64.8734 5.63486 65.1098 6.12286 65.1098 4.57498C65.1098 3.88111 65.2471 2.82123 65.4834 2.37136C65.7122 1.95198 66.3527 1.24286 66.9322 1.24286C66.9525 1.24286 66.9729 1.24286 66.9932 1.24286C67.2829 1.27336 68.4267 1.92148 68.7546 2.09686C69.4789 2.48573 71.7512 3.50748 71.9189 4.20898L74.3513 3.98023L74.4123 4.00311C74.7173 4.00311 75.5408 4.81136 75.7848 4.97148C76.2347 5.26886 76.7532 5.45186 77.2564 5.78736C78.2172 6.42023 79.1322 6.90823 80.0472 7.57923C81.4121 8.57811 81.5264 8.18923 82.3881 9.85148C82.8913 10.8351 83.4098 11.8721 83.6538 13.1074C83.7148 13.4276 83.4022 14.6095 83.2649 14.9526C82.9828 15.6617 82.9218 15.8752 82.7922 16.7369C82.6092 17.9874 82.3804 19.3599 82.2279 20.6637C82.0754 21.9142 81.3511 27.8617 81.0079 28.487L80.1844 28.2887C80.0014 28.0752 79.8413 27.8007 79.8489 27.3737V27.3204C79.8489 26.9239 80.3141 25.3836 80.4284 24.8499C80.6114 24.0187 80.7639 23.1266 80.9012 22.3184C81.1376 20.9611 81.8009 18.5745 81.6866 17.2096C81.4883 17.2554 81.4273 17.3164 81.1909 17.3164H81.0232C80.1311 17.3164 79.6049 14.4646 79.0407 14.0681C79.0407 15.8524 79.0788 18.7422 78.8348 20.374C78.6518 21.655 79.3686 26.1004 78.1333 26.1995C78.0189 25.7954 77.8588 25.7572 77.8588 25.0786V24.9719L77.9046 22.7377L77.9274 20.6637H77.8131L76.6617 29.2952L76.5778 29.28C76.3491 29.2952 76.4558 29.3334 76.2423 29.3334C75.7391 29.3334 75.5256 28.9597 75.5256 28.5327C75.5256 27.8541 75.9449 26.291 76.1051 25.5209C76.2804 24.6059 76.3796 23.4011 76.6083 22.4861C76.7227 22.021 76.9819 19.825 76.9819 19.3294C76.9819 18.605 77.1726 18.4677 76.6693 17.9874C76.4482 17.7739 75.9373 17.2935 75.7162 17.1486L75.1367 18.0407C75.2892 18.5211 75.8229 18.5592 75.8229 19.276V19.8631C75.8153 20.4502 70.6303 31.476 70.4321 31.6132L69.8754 31.2396C70.0813 30.4161 70.8057 29.3029 71.0649 28.4946C71.2556 27.8922 71.9418 26.3215 72.2468 25.7954C72.5594 25.2387 74.1607 20.6714 74.1607 19.9699H74.0463C74.0234 20.2749 72.9712 21.9447 72.7501 22.4404C72.5213 22.9589 71.8046 24.644 71.2174 24.644C71.0649 24.644 71.0649 24.6211 70.9429 24.5906L70.8514 24.5449L73.8481 19.0472L73.7718 19.0091C72.7501 18.7422 73.0627 18.8566 71.8961 18.849C71.0573 18.8414 70.5007 18.8947 69.8449 18.9481C69.7992 19.459 66.9093 20.2749 65.9714 20.2749C64.5074 20.2825 64.5913 20.0232 64.1491 21.0755C63.9737 21.4872 63.5314 22.4632 63.5314 22.9817C63.5314 23.5612 64.6752 25.3302 65.2394 25.376C65.7732 25.1091 67.4964 22.3031 67.5193 21.655H67.6794C68.0149 21.6626 68.8842 23.0656 69.2273 23.1495L69.2959 23.1952L67.2296 25.8869C68.0607 26.1842 69.5552 24.9185 69.4484 24.1636L69.2578 22.57C69.6162 22.7835 69.9517 23.5689 69.9441 24.1102C69.9441 25.0786 69.2502 25.7877 68.6021 26.169C67.7099 26.6875 66.4594 26.2757 66.0096 26.9239L66.0019 26.9849L69.2731 27.4347V27.511L68.2284 27.6406L68.1674 27.6177C67.5879 27.6177 65.3996 27.1526 65.2394 27.2365C64.5379 27.6254 63.5314 27.9609 62.4716 27.9837C62.9367 28.5937 66.6272 28.7462 66.7873 28.9445L66.7949 29.036L65.4606 29.1885L65.0717 29.158C63.8593 29.158 62.1056 28.4107 61.3659 27.9227C61.1677 28.2049 60.8627 29.341 60.8627 29.7375C60.8627 30.2026 61.4574 31.415 61.5032 31.7276C61.6557 32.6274 62.5859 31.232 62.9672 31.232C63.4171 31.232 64.6752 31.8267 64.6752 32.1851C64.6752 32.5969 64.3168 33.1992 64.1186 33.4127L64.4922 32.3071C64.2634 32.0174 63.7526 31.8496 63.3942 31.7124C62.7766 31.476 62.8681 31.8191 62.3953 32.1241C62.1742 32.269 61.4651 32.6197 61.3583 32.7189C61.0838 32.9781 60.8703 33.2984 60.3061 33.2984H59.9172C59.4978 33.2984 59.2919 33.0315 58.7506 33.0315H58.5294C58.3998 33.0315 57.5306 34.1676 57.5306 34.1981V34.3049L57.6678 35.4181L57.5839 35.4257C57.3399 35.2656 57.2027 34.9149 57.2027 34.5184V34.3049C57.2027 33.9846 57.7059 33.2221 57.8737 32.9857C58.2931 32.391 58.5371 32.6045 59.3682 32.6045L60.3061 32.6121C60.9466 32.6121 60.3061 30.7897 60.3061 30.4771C59.3377 30.4009 58.5371 30.1721 58.5371 29.1961V29.1504C58.5371 28.6471 58.7887 28.2964 59.3148 28.2964H59.4216C59.9858 28.2964 60.2756 28.5404 60.5348 28.8301C60.5501 28.609 60.5882 28.7081 60.5882 28.5099C60.5882 28.2659 60.3213 28.2506 60.3137 27.8694C59.4902 27.8694 58.6438 27.6177 58.0567 27.3737C57.6068 27.1907 56.5164 26.5426 56.2724 26.4816L56.1581 26.4282L55.5557 27.5949L55.6624 27.6559C56.4249 27.7169 57.3781 28.1362 57.3781 28.8225V28.9292C57.3781 29.3105 56.8901 29.7832 56.4936 29.7832H56.4326C55.7844 29.7832 55.1592 29.1961 55.1134 28.609L55.0677 28.5404L53.1919 29.7222L53.2224 29.7756C53.5122 29.8366 54.0383 30.0349 54.2061 30.2179C54.2671 30.2789 54.6636 31.1176 54.6636 31.1634V31.3235C54.6636 31.5751 54.3357 31.9564 54.1603 32.0631C54.2061 31.8954 54.3814 31.5522 54.3814 31.4836C54.3814 31.3387 54.0841 30.7211 54.0078 30.622C53.7409 30.2407 53.5274 30.3932 53.1309 30.2407C52.5057 29.9967 51.8194 29.8747 51.3238 29.5316C50.5079 28.9674 50.4927 29.2571 49.5548 29.5926C48.7313 29.89 48.8914 30.5991 48.4111 30.9346C48.4111 29.7146 49.3261 28.7767 50.3554 28.548L50.0047 27.9914C49.6692 28.0371 48.6856 28.0371 48.7466 28.3879L48.9067 29.3944C48.7008 29.2571 48.5254 28.731 48.5254 28.3879C48.5254 27.7931 49.0973 27.694 49.6921 27.694V27.5872C49.3566 27.511 48.7542 27.7321 48.4492 27.8846C48.0756 28.06 48.0146 28.609 47.6409 28.7005C47.9993 28.06 48.3424 27.2136 49.4099 27.2136C50.7214 27.2136 51.7661 29.2952 52.4523 29.2952H52.5057C53.0166 29.2952 54.0231 28.2964 54.4806 28.06C54.9609 27.8084 55.0372 27.7321 55.1973 27.145C55.3346 26.6494 55.5176 26.3367 55.6091 26.0012C54.3662 24.2017 53.3444 23.7061 53.3521 20.5189V20.3587C53.3521 18.4372 54.3891 18.2542 54.7398 16.7979C54.6559 16.6682 54.4348 16.3709 54.2442 16.3709H54.1908C54.0383 16.3709 54.0383 16.3937 53.9087 16.4242C53.9087 18.0179 53.1538 20.4121 51.5831 20.4045H51.3619C50.8434 20.4045 50.3097 19.4895 50.3097 18.971L50.3173 18.2237C50.3173 16.9961 52.2998 15.86 52.4752 15.1432C52.0558 15.433 52.1626 15.5931 51.4611 15.921C51.2399 16.0277 50.4317 16.4166 50.2029 16.4166C50.0352 16.4166 49.9818 16.3632 49.8751 16.3099V15.9362C50.1267 15.8676 50.8587 14.9069 50.9121 14.5866C51.0264 13.7784 50.0581 13.8317 49.4938 13.7021C49.4633 13.5801 49.4328 13.5801 49.4328 13.4352C49.4328 13.1607 49.9513 12.6041 50.1267 12.3982C50.5842 11.8569 50.3173 11.895 49.9971 11.3612C49.7836 10.9952 49.0592 9.43973 49.0592 8.96698V8.37986C49.0592 7.94523 49.5624 7.31236 49.8903 7.31998H50.2258C51.4458 7.31998 50.9273 9.82098 52.2083 9.82098H52.8717C53.2682 9.82098 53.7486 9.36348 53.8019 9.01273C53.9011 8.41798 53.7257 7.97573 53.9239 7.41911C54.3052 6.32111 55.7539 6.55748 55.7539 7.59448V7.75461L55.6243 8.81448L55.6396 9.18811C55.6396 9.63036 55.9903 10.0421 56.4707 10.0421H56.5241C57.1722 10.0421 57.4924 8.17398 57.8889 7.62498C58.5066 6.75573 59.8486 7.75461 59.8486 8.71536V9.24911C59.8486 10.3929 58.7353 11.7272 57.9576 12.1161C58.4532 12.8329 58.8802 13.3437 59.2614 14.2206C59.3987 14.5409 60.1993 16.4471 60.3289 16.5386L61.0457 15.9439L61.0991 15.9057L63.8898 18.4982L62.5021 9.99636V9.83623C62.5021 9.08136 64.0118 7.15223 64.3854 6.48886ZM67.1762 25.864L67.2219 25.8945L67.2296 25.8869C67.2143 25.8767 67.1965 25.8691 67.1762 25.864ZM56.6613 29.1961C56.6613 28.3574 55.6624 28.3345 55.6624 28.5022C55.6624 28.8987 56.1809 29.1885 56.6613 29.1961ZM62.6393 19.8021L62.5173 19.825L61.3736 19.215L60.9084 21.5406L60.9313 22.0744C60.9313 23.6604 63.1654 25.4751 64.2406 26.1766L64.5913 25.9326C63.9127 25.4827 62.0674 23.7747 62.2504 22.7759L62.6393 19.8021ZM65.6893 19.4209V19.6344C65.6893 19.7564 65.7808 19.8479 65.9104 19.8479H66.3527C67.1838 19.8479 68.3199 19.1159 68.8461 19.1082V19.0015C68.5487 19.0015 67.5956 19.0625 67.2524 19.1159C67.0618 19.1464 66.6958 19.1616 66.5052 19.1921C66.1849 19.2455 65.8876 19.4209 65.8571 19.4209H65.6893ZM62.0598 25.2311C61.7472 24.8956 61.0686 23.9425 60.8474 23.5307C60.5043 22.8674 60.1459 22.3107 60.0926 21.3805C60.0773 20.9916 60.0163 20.3282 60.0544 20.008C60.1002 19.6954 60.3213 19.0244 60.3213 18.8261V18.3457C60.3213 18.2771 60.1002 18.0102 60.0468 17.9721C59.0556 18.6126 58.2168 20.1071 58.2168 21.7465V21.8532C58.2092 23.6527 60.1612 26.5502 61.3049 27.2899L61.3278 27.3509L63.6839 26.5502C63.6611 26.2834 62.3191 25.498 62.0598 25.2311ZM62.1589 18.3915C61.9226 18.1094 61.3202 17.4612 61.0457 17.2935L60.6568 17.3469C61.2744 18.2237 62.0751 19.1921 63.3103 19.4666C63.1654 19.276 62.8757 19.2302 62.7156 18.971C62.5631 18.7194 62.3496 18.605 62.1589 18.3915ZM74.4886 17.8882L75.0452 16.6149C74.7936 16.2565 73.3829 15.1585 72.9331 14.762C71.7969 13.7631 71.6292 14.396 70.5693 15.2271C69.0748 16.409 67.6413 17.6214 66.1849 18.8337L74.4886 17.8882ZM69.9593 12.4059C70.5998 12.4059 71.5453 12.993 71.9571 13.2599L73.1923 12.4135L76.9896 14.3884L77.0048 14.518L76.2347 16.2336L77.9732 17.4155C77.9808 16.2336 78.0647 14.5714 77.5919 13.8546C77.3174 13.4352 77.0658 13.0921 76.8218 12.627C76.6236 12.2229 76.1966 11.8264 75.9907 11.468L75.3349 11.3994L76.2576 13.4886L76.1584 13.5267C76.0364 13.5572 76.0288 13.5801 75.8839 13.5801H75.7696C75.0909 13.5801 74.5496 11.7272 74.2751 11.1859L74.2903 11.1172L69.6391 10.5835L69.6314 10.6445C68.9909 11.5671 66.5128 16.3022 66.2459 17.4002C66.8864 16.9885 69.4561 12.3982 69.9593 12.4059ZM77.1726 8.89073C77.9884 9.66848 78.1714 10.3852 78.7433 11.3689C79.2237 12.1924 81.4807 15.9515 81.6256 16.5691H81.7857L81.8543 15.5092L81.8696 15.4559L82.0221 13.1684C82.0602 12.6727 80.9774 10.4615 80.7411 9.98873C80.3293 9.19573 80.5352 9.24911 79.8032 8.70773C79.4448 8.44086 78.7814 8.09773 78.3621 7.85373C77.9198 7.60211 77.3937 7.28948 76.9743 7.00736C76.4711 6.66423 76.0059 6.51936 75.4722 6.21436C75.2053 6.06186 75.0147 5.98561 74.7326 5.86361C74.6029 5.81023 74.4352 5.78736 74.3132 5.73398C74.2064 5.68823 74.1073 5.58148 73.9396 5.51286C73.4058 5.26886 72.9483 4.90286 72.2087 4.91811L73.2457 7.19036L74.9537 7.09123C75.4798 7.06073 76.8066 8.53236 77.1726 8.89073ZM49.8598 13.4734L49.9284 13.542C50.3631 13.7402 50.9959 13.6792 51.1713 14.3731C51.3314 14.9984 50.6681 15.4787 50.5918 15.7761C51.0798 15.6694 51.5678 15.4406 51.9186 15.1966C52.2922 14.9374 52.4676 14.2359 52.8564 14.2359H52.9174C53.0471 14.2359 53.1386 14.3274 53.1386 14.4494C53.1386 15.3262 51.5297 17.0571 51.5297 17.3697C51.5297 17.8196 51.9186 18.2771 52.3532 18.2771C53.3826 18.2771 53.0547 15.9362 54.0764 15.9439H54.3509C54.8084 15.9439 55.2354 16.4242 55.2354 16.9046C55.2354 17.812 54.2366 18.605 54.2366 19.825V20.5722C54.2289 23.8815 57.2103 26.9849 60.2527 27.2289C60.1764 26.9467 59.4063 26.3901 59.1699 26.0394C58.8497 25.5666 58.5981 25.2159 58.2778 24.7126C57.7669 23.8815 57.1646 22.6615 57.1646 21.3729V21.0526C57.1646 19.3827 59.7494 17.4002 59.4978 16.8055C59.1776 16.0201 58.7811 15.25 58.4532 14.5027C58.1482 13.8012 57.0121 12.6575 57.0121 12.6499C56.8214 12.7337 55.0753 13.1226 54.7474 13.1226H54.3052C54.0231 13.1226 54.0078 13.0387 53.7486 13.0159C53.6571 13.3437 53.2377 13.5496 52.8031 13.542C52.6429 13.542 52.5209 13.4734 52.3684 13.4352C52.2998 13.6869 52.0558 14.1291 51.7508 14.1291C51.5221 14.1291 51.3086 14.0529 51.2552 13.8622C51.4306 13.9004 51.5983 13.969 51.8118 13.969C51.9414 13.969 52.0863 13.5191 52.0863 13.3285L50.8968 12.5507L49.8598 13.4734ZM52.3074 12.9091C52.3074 13.1302 52.6734 13.2294 52.9174 13.2294H52.9708C53.1386 13.2294 53.4131 13.1302 53.4131 12.9625V12.8024C53.4131 12.6346 53.0623 12.4974 52.9708 12.1085C52.5591 12.1085 52.3074 12.2839 52.3074 12.6422V12.9091ZM51.9186 12.6422C51.9643 12.6422 52.2007 12.0475 52.2541 11.9484C52.1016 11.9865 51.5297 12.1847 51.5297 12.322C51.5297 12.383 51.9109 12.6422 51.9186 12.6422ZM54.0231 11.6357C53.7486 11.6357 53.4207 11.6281 53.3597 11.8492C53.6571 11.9255 53.8401 12.2381 53.9087 12.5431C54.3433 12.5431 54.5187 12.3601 54.5187 11.956V11.9026C54.5187 11.7577 54.4958 11.7577 54.4653 11.6357H54.0231ZM54.5187 12.7032H54.7398C55.0829 12.7032 56.2419 12.4897 56.4554 12.383C56.2648 12.1009 55.2812 11.7044 54.8008 11.6891C54.8389 11.834 54.8542 11.7882 54.8542 11.9026C54.8542 12.2991 54.5492 12.4287 54.5187 12.7032ZM71.4538 13.7402C71.3699 13.6259 71.0802 13.42 70.8972 13.42C70.7828 13.42 67.6566 16.8894 67.4049 17.2477C67.8548 17.141 71.1336 14.1977 71.4538 13.7402ZM66.0934 15.8752C66.2154 15.6007 66.3984 15.2576 66.5433 14.9755C66.7797 14.5027 67.1914 13.5801 67.3821 13.115C67.5422 12.7032 68.9528 9.49311 69.1968 9.48548L73.7261 10.1794C73.5126 9.75236 73.1999 8.31886 72.6738 8.31886L71.2937 8.31123C70.6151 8.31123 68.3047 8.34936 67.9006 8.50186C67.0389 8.82973 67.0694 9.98111 66.7873 10.8961C66.3222 12.4364 65.7351 14.9679 65.5826 16.7064C65.9257 16.6987 65.9867 16.1269 66.0934 15.8752ZM74.4962 9.86673C74.8317 10.553 75.5179 10.2861 76.3567 10.5225C77.3479 10.797 78.1486 13.1074 78.5908 13.2217C77.8131 11.8035 75.9373 8.31886 73.9472 8.31886C73.6041 8.31886 74.3818 9.61511 74.4962 9.86673ZM63.5162 10.6979L64.3244 16.9275L64.9878 7.87661C64.6371 8.09773 63.5467 9.68373 63.5467 10.2175L63.5162 10.6979ZM53.9468 9.69898C53.6418 10.0726 53.0394 10.3547 52.3608 10.3547C50.4546 10.3547 50.9807 7.80036 50.0428 7.79273C49.7226 7.79273 49.4938 8.07486 49.4938 8.37986V8.75348C49.4862 9.55411 50.3631 11.3917 50.8129 11.6815C51.6364 11.4985 52.1854 10.6216 53.8019 10.6216H54.3586C56.1733 10.6292 56.4859 11.2011 57.5611 11.7501C58.1634 11.3612 58.8573 10.7131 59.1318 10.0116C59.4216 9.26436 59.2157 7.75461 58.3998 7.75461C57.7212 7.75461 57.8737 10.4691 56.5164 10.4691H56.0666C55.7158 10.4691 55.1897 9.79048 55.1897 9.40161C55.1897 8.66198 55.6167 7.22086 54.7474 7.22086C54.4501 7.22086 54.1908 7.59448 54.1908 7.90711C54.1908 8.69248 54.3738 9.18048 53.9468 9.69898ZM65.6741 10.3014C65.7579 9.85911 65.8418 9.40161 65.8647 8.93648C65.8952 8.33411 65.9333 8.03673 66.5891 8.03673C67.4507 8.02911 68.6783 7.83848 69.4942 7.70123C70.0889 7.60211 71.9342 7.31236 72.3459 7.30473V6.93111C71.8503 6.80148 71.8122 5.00961 70.9048 5.00961H70.7981C69.7916 5.00961 68.6478 5.22311 67.7023 5.32986C66.6196 5.45186 66.0172 5.89411 65.7274 6.77861C65.5597 7.28948 65.2547 12.2 65.2547 13.0387C65.3462 12.8862 65.5978 10.7207 65.6741 10.3014ZM75.4569 15.6922L75.5027 15.6617L75.5942 15.0212V14.9679C75.5942 14.701 74.5191 14.2054 74.2674 14.0605C73.6498 13.7174 73.4516 13.4962 72.6128 13.6869L75.4569 15.6922ZM70.6303 4.42248C70.5236 4.04123 69.7611 3.55323 69.3722 3.40073C69.1358 3.31686 67.8167 2.60773 67.8091 2.60773C66.6806 2.60773 66.0934 4.10223 65.8723 5.00198L70.6303 4.42248ZM59.7418 29.89C59.8486 29.89 59.9248 29.8214 60.0697 29.7832L60.0773 29.463C60.0773 29.2647 59.7037 28.9216 59.5207 28.8301C59.2919 28.9292 59.1318 28.8377 59.1318 29.1961V29.3029C59.1318 29.6079 59.4368 29.89 59.7418 29.89ZM1.66982 11.6434C2.19594 10.2632 2.81357 8.66198 3.82769 7.75461C4.14794 7.47248 5.23069 6.75573 5.64244 6.51936C6.29819 6.13048 6.91582 5.77973 7.59444 5.42136C8.32644 5.02486 8.84494 4.74273 9.51594 4.29286C10.1183 3.89636 10.9266 3.68286 11.5518 3.27111C12.1923 2.85936 12.6574 2.22648 13.6334 2.74498C14.5332 3.21011 14.6399 3.31686 15.7684 3.67523C17.2782 4.14798 19.1158 4.48348 20.0537 5.52048C20.4121 5.91698 21.2508 9.39398 21.4186 10.1641C21.5253 10.6521 22.3793 15.0289 22.4251 15.0899C23.0808 14.6705 24.3618 12.1695 25.6352 12.1695H25.7496C26.0622 12.1695 26.5121 12.5202 26.8552 12.5965C27.1983 12.3754 27.2746 12.2152 27.9074 12.2305C28.2734 12.2381 28.7614 12.3372 28.8453 12.6575C29.4553 12.6422 29.6154 11.1249 29.6688 10.5682C29.7603 9.73711 29.8823 8.57811 29.7374 7.97573C28.8911 7.97573 27.4576 7.96048 26.9848 7.63261C26.4434 7.25898 26.2681 5.89411 27.3661 5.89411H27.5338C27.9989 5.89411 28.6928 6.32111 28.9139 6.32111H29.1884C29.4019 6.32111 29.6917 6.12286 29.6917 5.94748V5.79498C29.6917 5.33748 28.8606 4.71223 28.8606 4.24711V3.76673C28.8606 3.53798 29.3333 3.28636 29.5849 3.29398H30.1339C30.5838 3.29398 31.0108 5.20786 32.4596 5.20786C32.5739 5.20786 32.9552 5.04773 32.9552 4.89523V4.84186C32.9552 4.38436 32.1851 4.19373 32.1851 3.66761V3.24061C32.1851 2.99661 32.5892 2.70686 32.9018 2.70686C33.9617 2.71448 34.5641 4.00311 34.5564 5.05536V5.26886H34.7242C35.5553 5.26886 38.1402 5.76448 38.1554 6.38973L38.1631 6.46598L36.9964 6.60323L36.9888 6.54986H36.7677C36.4093 6.54986 36.1882 6.83961 36.1577 7.18273L36.1501 7.25136L38.0868 7.55636L36.5542 7.89948L36.4932 7.98336L38.0182 8.72298C37.9343 9.09661 36.6686 9.37111 36.1043 9.37111L35.4409 9.36348C35.0521 9.36348 34.5412 8.95936 34.2743 8.93648V9.04323C35.2046 9.25673 36.8287 10.126 37.2023 10.858C37.4082 11.2545 37.8276 12.0856 37.6369 12.6575C37.4768 13.1226 37.0193 13.7326 36.3712 13.7326H36.2644C35.5248 13.7326 34.5031 12.7795 34.2743 12.2305C34.0456 11.6662 33.4661 10.2709 32.7798 10.2709L32.6121 10.2632C32.3986 10.2632 32.1164 10.4691 32.1164 10.6369V10.797C32.1164 11.3841 33.6033 12.1161 33.8626 12.627C34.0532 13.0006 34.4573 13.4962 34.5488 13.725C34.7242 14.1901 34.5488 14.4951 34.8843 15.0975C35.0902 15.4711 35.4562 15.7609 35.4791 16.2794C35.5096 16.8741 35.5096 17.3621 35.6011 17.9187C35.6773 18.3686 35.8146 18.8719 35.8679 19.4209C35.9747 20.3816 35.5858 20.313 35.5858 20.7552C35.5782 21.045 35.6849 21.0374 35.6926 21.3424C36.1501 21.35 36.7143 21.8761 36.8516 21.8761H37.1337C37.7361 21.8761 38.5901 21.0145 38.4604 20.2825L38.2088 18.9557C38.1554 18.4449 38.6663 17.5527 38.8874 17.2782C39.3297 16.7521 39.8024 16.7674 40.7403 16.775C40.4887 17.0876 38.9332 16.9504 38.9103 17.9416C39.3373 17.6366 39.8558 17.0342 40.5726 17.0342H40.6793C40.9767 17.0342 41.3351 17.2859 41.3961 17.5146C41.1139 17.4536 41.0301 17.2477 40.7327 17.2477C40.3209 17.2477 39.3068 17.8882 39.2916 18.4144L40.7784 18.0179L40.7861 18.1551C40.1532 18.3 39.1696 18.5364 39.0857 19.2302C39.0476 19.5352 39.1009 20.1376 39.1238 20.4884C39.1848 21.3881 39.0552 20.9611 38.9027 21.5025C39.0704 21.7465 39.2077 21.8227 39.6194 21.8227C40.0236 21.8227 39.9931 21.5101 40.6183 21.5101C40.4582 21.7084 39.8406 22.143 39.4517 22.143C38.9484 22.143 38.6968 21.8761 38.3994 21.8761C38.3613 21.8761 37.3396 22.2497 37.2404 22.2955C37.3014 22.9894 37.6674 23.4316 37.2176 24.2017C37.0117 24.5677 36.3941 25.1701 35.8527 25.1701H35.6849C34.7394 25.1701 34.6937 24.4991 34.3734 24.1407C34.1981 23.9425 33.2907 23.3249 33.0314 23.1952L33.0696 23.2486L31.5141 24.2551L31.3692 24.6821C31.7199 24.9109 32.1774 25.6276 32.2003 26.1766C32.2461 27.3051 32.6959 27.0154 32.6883 27.9837V28.0371C32.6883 28.6242 32.3071 29.4172 32.2994 30.1645V30.805C32.2994 31.2167 33.3593 31.8725 33.8473 31.8725C34.4268 31.8725 34.7471 31.4989 35.0063 31.5065C35.5477 31.5065 35.5782 31.3616 35.9976 31.7276C36.4246 32.1012 36.4474 31.9106 36.4474 32.6731L36.3712 32.6502L36.2034 33.1459L36.1119 33.1535C36.1119 32.6884 35.5858 31.9869 35.1207 31.9792H35.0063C34.8843 31.9792 34.8462 32.0174 34.8462 32.1394V32.1927C34.8462 32.3452 35.6697 33.1459 35.6697 33.4204C35.6697 33.6262 35.5553 33.7864 35.3952 33.8474C35.3952 32.8714 34.9529 32.391 33.9007 32.4062C32.6426 32.4139 32.5053 31.7886 31.7962 31.598L31.7504 31.5446L30.3932 32.5969C30.4008 32.0631 31.0871 31.1862 31.6361 31.1786V30.4847L32.1164 27.5186L32.0326 27.5034C31.6284 27.6101 31.6513 28.0829 30.6219 28.1591C30.0806 28.2049 29.4248 27.9304 29.4324 27.3966C29.4324 26.4816 30.2331 26.2757 31.2014 26.2834C31.5293 26.2834 31.6361 26.4664 31.4531 25.8792C31.3692 25.6352 31.3006 25.4904 31.1328 25.3302C31.0032 25.2082 30.0958 24.8422 29.8747 24.8422H29.8213C29.5621 24.8422 29.5087 25.0024 29.1046 25.0024L29.3943 25.9402L29.2494 25.986L28.8453 24.9566C28.5174 24.8651 26.9467 24.1255 26.5197 23.912C25.6123 23.4774 25.0481 23.3401 24.0492 22.9894C23.1647 22.6844 22.4327 22.4404 21.4872 22.1506C20.9611 21.9829 19.1463 21.6779 19.1463 21.1517C19.1463 20.9916 20.4502 19.2912 20.6484 19.2912H20.7018C21.3957 19.2912 24.2551 21.6397 24.6211 21.6397H25.1243C25.7419 21.6397 26.8704 20.9916 27.3889 20.9535C27.3966 20.5875 26.9924 19.6572 26.8552 19.2912C26.5807 18.5364 26.4358 18.5592 25.8563 18.1246C24.7583 17.2935 24.4304 17.0114 22.5318 17.0037C22.0591 17.0037 16.9351 22.5471 16.9274 23.2257V23.2791C16.9274 24.522 25.9326 27.9532 26.1613 28.5632C24.9871 28.5556 21.7083 26.962 20.6866 26.474C19.8783 26.0927 18.8871 25.681 18.0407 25.3455C17.5984 25.1701 17.1714 24.9642 16.7444 24.7279C16.4318 24.5677 15.7074 23.9577 15.7074 24.2322V26.1461L15.0974 26.0927L14.5789 18.1627C14.4798 17.0037 15.0974 16.5157 16.2793 16.5691L20.4807 16.7445L20.7018 16.7369C20.8924 16.7369 20.9916 16.6606 21.0907 16.5767C19.9164 16.5767 18.5592 14.7086 17.8958 14.1672C17.3544 13.7326 16.7216 13.4962 16.0429 13.1836C15.1584 12.7719 14.9678 13.2065 14.3883 13.8394C13.5953 14.7086 12.4821 15.8829 11.5518 16.592C10.9952 17.0114 10.5834 17.4994 10.0954 17.9569C9.76757 18.2695 8.74582 18.8947 8.74582 19.3827V19.7487C8.74582 20.2596 10.3928 24.3161 10.6749 24.9185C11.0714 25.7649 11.3688 26.4816 11.7272 27.4119C11.8416 27.7016 12.9319 29.8137 12.5431 29.8137C11.7043 29.8137 11.3231 28.1515 11.0333 27.4957C10.6368 26.5807 10.2556 25.742 9.85907 24.8499C9.11944 23.18 8.25019 21.2432 7.62494 19.4971C7.22844 18.3991 8.32644 17.8425 8.92882 17.263C9.53119 16.6911 10.2784 15.9591 10.8961 15.433C11.4222 14.9907 14.7696 11.9484 15.0136 11.8874L15.0441 11.834L19.8936 14.7772L19.9317 14.7162C19.2302 14.1291 17.4612 13.0387 16.5996 12.5431C15.9667 12.1847 13.8774 10.3929 13.1302 10.7589C12.1084 11.2621 8.72294 16.8817 8.41794 16.8741H8.36457C8.23494 16.8741 8.19682 16.8436 8.19682 16.7216V16.6149C8.19682 16.0049 10.8503 12.7719 11.0257 12.1466C10.6063 12.1542 8.68482 13.5115 8.45607 13.9309C8.02907 14.7467 7.76982 16.3175 7.54869 17.3164C7.28182 18.4754 6.96919 19.6725 6.76332 20.8239C6.65657 21.4034 6.49644 22.021 6.42019 22.6234C6.35919 23.119 6.03894 23.7824 6.02369 24.3237L5.74919 24.3847C5.74919 24.9719 6.45069 26.0165 6.74807 26.3977C6.90057 26.5884 7.85369 28.0981 7.89944 28.2659C7.80032 28.6242 7.51057 28.6929 7.01494 28.6852C6.88532 28.1439 3.93444 23.2029 3.43882 22.448C2.86694 21.5635 0.00756836 16.9961 0.00756836 16.1192V16.0125C0.00756836 15.9439 1.49444 12.1161 1.66982 11.6434ZM36.9049 23.6299V23.2562C36.9049 22.8597 36.7143 22.6157 36.4627 22.4556C35.8908 22.5852 34.8004 22.9741 34.9148 23.6832L34.9834 24.1026C35.1131 24.1789 35.6544 24.583 35.7459 24.583H35.9671C36.3331 24.583 36.9049 23.9959 36.9049 23.6299ZM35.9137 22.1354C35.8527 22.0667 35.4714 21.8151 35.3571 21.8151L34.8081 21.838C34.5869 21.8227 33.7863 22.692 33.4203 22.8826L34.3582 23.5689C34.4268 22.8292 35.3266 22.4099 35.9137 22.1354ZM28.2887 23.7442L28.3649 23.6604L27.6177 21.4872L25.2539 22.1201L28.2887 23.7442ZM28.4183 22.8979C28.5556 23.3249 28.6089 24.1026 29.1656 24.1026C29.7298 24.1026 32.0402 22.9894 32.2613 22.6691L29.3333 20.7019L28.0066 21.3271C28.0066 21.6169 28.3116 22.57 28.4183 22.8979ZM27.7931 20.6866L27.8159 20.74L28.6699 20.2672L27.4576 19.3065L27.7931 20.6866ZM1.66982 16.9199C1.66982 17.6061 5.13919 23.8739 5.42132 23.9501C5.98557 22.8292 5.48232 21.2737 5.48994 19.7487C4.73507 19.5581 4.49869 17.9416 4.30807 17.1105C4.15557 16.47 3.49982 14.5332 3.50744 14.1062V14.0529C3.50744 13.3666 12.3829 5.23073 12.9243 5.23073H13.2598C14.3502 5.23836 15.5397 5.55098 16.5462 5.69586C18.0712 5.90936 18.3076 5.98561 18.9176 7.08361C19.3522 7.86898 19.8326 8.70011 20.1909 9.53123C20.2977 9.76761 21.3118 12.0932 21.3271 12.1085C21.3194 11.6434 20.4121 8.73823 20.2062 8.24261C19.3979 6.22198 20.0537 6.26011 17.7814 5.62723C16.4547 5.25361 15.1661 4.81898 13.8698 4.43773C11.6052 3.76673 11.8111 4.07173 10.0116 4.92573C9.11182 5.35273 7.74694 6.23723 6.80144 6.78623C5.69582 7.41911 4.70457 8.02148 4.26994 9.29486C3.76669 10.7436 1.67744 15.5474 1.66982 16.7597V16.9199ZM27.6253 18.4982C27.9913 18.7804 28.9444 19.6191 29.2799 19.7869C29.7146 19.5657 31.8877 17.8044 31.8877 17.3392V17.2859C31.8877 16.4242 29.3562 15.3949 28.5174 15.2119L26.7408 16.4852C27.1831 17.4384 26.7332 17.7891 27.6253 18.4982ZM24.6973 16.1574H24.8574C25.1548 16.165 25.4293 15.9972 25.6428 15.8905L24.9184 13.5496C24.7507 13.664 23.6451 15.0899 23.6451 15.311C23.6451 15.6541 24.4152 16.1574 24.6973 16.1574ZM7.37332 14.2206L7.29707 14.1825L5.73394 15.2805L5.80257 15.3262L6.37444 20.0309L7.37332 14.2206ZM26.0851 13.6106V13.8165C26.0851 14.1062 26.2452 14.396 26.3138 14.6552C26.3901 14.9602 26.3291 15.4406 26.6188 15.4711L26.6874 13.9232C26.7027 13.6564 26.3443 13.5039 26.1384 13.4505C26.1003 13.5115 26.0851 13.5039 26.0851 13.6106ZM27.7092 14.6705H27.8541C27.9303 14.4036 28.5174 13.9766 28.5174 13.7707V13.5572C28.5174 13.3819 28.2734 13.1302 28.0218 13.1302H27.7626L27.7092 14.6705ZM20.2748 12.2076C19.8783 11.4451 19.4208 9.97348 18.2847 9.97348L16.1802 9.96586C16.0963 9.96586 15.9743 9.99636 15.9057 10.0192L21.6092 15.0212L21.6549 14.9755C21.6168 14.5409 20.5112 12.6804 20.2748 12.2076ZM32.5053 9.62273H32.6731C33.3898 9.62273 33.9464 11.4909 36.1043 11.5442C36.1806 11.4375 36.2644 11.407 36.2721 11.2774V11.1172C36.2721 9.86673 33.3136 9.71423 33.2831 8.24261H32.9018C32.5358 8.24261 32.3528 7.96811 32.1088 7.82323C31.8724 7.67836 31.3006 7.75461 30.9651 7.75461C30.8202 8.32648 30.5228 8.38748 30.3856 9.27961C30.3017 9.79048 30.2178 10.675 30.1873 11.163C30.0958 12.3144 29.6917 13.6259 29.1808 14.3502C30.0882 14.7696 30.8812 14.8459 31.6742 15.4635C32.1774 15.8524 33.1611 16.7445 33.1534 17.5527C33.1534 18.1627 30.5686 20.191 29.8899 20.2062C30.0577 20.4502 32.3909 22.2345 32.6502 22.2345H32.8713C33.2602 22.2345 34.8691 20.1757 34.8691 19.5276V19.4209C34.8691 18.0407 34.3887 15.3644 33.9388 14.4646C33.4737 13.542 33.6033 13.4047 32.9476 12.4974C32.6731 12.1161 31.7276 11.2164 31.7352 10.736V10.2632C31.7352 9.94298 32.2384 9.62273 32.5053 9.62273ZM4.55207 14.8992C4.55207 15.4254 4.76557 16.2794 4.84182 16.8589C4.85707 17.0266 5.32219 19.1006 5.32219 18.3076L5.35269 18.1932L5.10869 15.3796V15.3262C5.10869 14.5104 8.37219 12.3144 9.07369 11.6891C9.66082 11.1706 10.5911 10.5301 11.2468 10.0574C11.6128 9.79048 11.9636 9.47786 12.5888 9.48548C13.2064 9.48548 13.4199 9.05848 14.0833 9.05848H14.4112C14.9526 9.05848 14.9144 9.33298 15.9209 9.23386C16.4623 9.18048 17.0494 9.17286 17.6213 9.17286H17.7891C19.3522 9.17286 19.5657 9.50073 20.0156 10.5987C20.1986 11.0486 20.9382 12.8176 21.1593 13.0616C21.1288 12.7185 20.3129 10.8732 20.1299 10.492C19.6953 9.58461 19.2454 9.02798 18.7193 8.22736C18.0178 7.15223 18.0864 6.96161 16.5691 6.67186C15.6541 6.50411 14.2739 6.23723 13.2598 6.23723H12.6498C12.4516 6.23723 8.66957 9.63798 8.34932 10.0345C7.70882 10.8122 4.55969 13.3285 4.55207 14.3121V14.8992ZM32.6807 6.90823C32.8637 6.79386 33.1763 6.22198 32.9018 6.22198C32.8484 6.22198 32.4062 6.40498 32.4062 6.48123C32.4062 6.75573 32.4901 6.81673 32.6807 6.90823ZM34.3963 6.22198C34.3963 6.48886 34.3048 6.50411 34.3124 6.77098L34.6861 6.29823L34.7776 6.36686L33.4737 8.12823L33.5652 8.18923C34.0532 8.31886 34.8386 8.93648 35.5553 8.93648L36.4932 8.95936L37.4921 8.83736C37.4234 8.60861 35.8832 8.35698 35.8908 7.44961V7.02261C35.8908 6.49648 36.4627 6.48886 36.4932 6.13048L34.6708 5.95511H34.3963V6.22198ZM33.5652 6.86248C33.8092 6.86248 33.8397 6.51936 33.8473 6.27536L33.8397 6.00086L33.3441 6.06948C33.3593 6.22961 33.3974 6.25248 33.3974 6.43548V6.59561C33.3974 6.73286 33.3746 6.74048 33.3441 6.85486L33.5652 6.86248ZM17.0037 21.5406C17.4764 21.0831 17.9873 20.5417 18.4753 20.13C18.8642 19.8097 21.2356 17.4994 21.2584 17.1715L19.7106 17.1867C19.0777 17.1639 17.9187 17.263 17.2401 17.3392C16.3861 17.4307 15.7151 17.4155 15.5778 18.239C15.3643 19.4819 15.6083 21.8075 15.6083 23.0656C15.6464 23.058 16.8207 21.716 17.0037 21.5406ZM27.2593 6.90823L28.4183 7.06836H28.8072L30.3017 7.07598C30.3474 6.54986 31.1023 5.58148 31.7428 5.58911C31.3844 5.36798 31.4073 5.66536 31.0261 5.20786C30.8659 5.00198 30.6906 4.82661 30.5304 4.62073C30.0958 4.05648 30.1797 3.59898 29.3104 4.04123C29.5544 4.49111 30.1339 4.91811 30.1339 5.58148V6.00848C30.1339 6.64136 29.7069 7.02261 29.0817 7.02261C28.4564 7.01498 28.2582 6.64136 27.7549 6.64136H27.4271C27.2364 6.64136 27.2593 6.74048 27.2593 6.90823ZM32.7417 3.46173C32.7417 3.88873 33.6872 3.92686 33.3441 5.32223C33.5194 5.30698 33.5423 5.26886 33.7329 5.26886H34.0074V4.94861C34.0151 4.38436 33.6338 3.24823 33.1306 3.24823C33.0391 3.24823 32.7417 3.37786 32.7417 3.46173ZM31.4226 26.9772L30.9879 26.9162C30.6829 26.8705 30.2178 27.1679 30.0958 27.3432C30.3627 27.7245 31.3692 27.5872 31.4226 26.9772ZM77.4394 47.1454L77.7521 47.4427L77.4394 48.6475L77.4318 49.0974L77.5919 50.2945C77.1649 55.6879 76.2754 58.3846 74.9232 58.3846C73.5609 58.3795 72.5798 55.8302 71.9799 50.7367V49.837C71.9799 49.0694 72.1884 48.6195 72.6052 48.4874H72.9178L73.3829 48.7847L73.2304 49.837L73.2228 51.3391C73.2177 53.3013 73.6829 55.2507 74.6182 57.1875H74.9308C75.6577 56.913 76.1279 55.0144 76.3414 51.4916V49.9895C76.3414 49.2829 76.2398 48.7339 76.0364 48.3425C76.0364 47.6969 76.5041 47.2979 77.4394 47.1454ZM64.2406 42.0366C64.7133 42.2298 64.9726 42.4306 65.0183 42.639L64.7057 44.286L65.0107 50.5842H65.1632C65.9003 50.0505 66.8381 48.7034 67.9768 46.543L68.1293 46.3905H68.4419L69.0672 46.9929V47.2902C66.6729 50.3809 65.4733 52.1296 65.4682 52.5362V52.6811C65.4682 53.9062 67.0237 55.5074 70.1347 57.4849H70.2948L71.2327 57.1875L71.2251 57.7899C71.0319 58.1508 70.7218 58.3999 70.2948 58.5371C69.3595 58.3338 67.7506 57.1316 65.4682 54.9305L65.3081 55.083V55.9827C65.3538 56.7097 65.5089 57.2078 65.7732 57.4772C65.5648 58.0771 65.3564 58.377 65.1479 58.377H64.8353L64.0576 57.6297L64.2177 56.5775V55.3804C64.2228 53.6825 64.1211 52.8336 63.9127 52.8336L64.0728 52.2312L63.6153 42.9364H63.4628C63.4628 42.7483 63.7221 42.4484 64.2406 42.0366ZM62.7079 45.7195L62.8757 45.8796V46.1846C60.8932 47.5266 59.8994 48.9245 59.8943 50.3784V50.6757C59.8943 51.7432 60.7788 53.2428 62.5478 55.1745L62.6927 55.7769C61.9404 57.6679 60.484 58.6108 58.3236 58.6057C57.4238 58.6057 56.8799 58.3541 56.6918 57.8509L56.2496 58.2855H55.7921C55.3041 58.2855 54.9406 55.9319 54.7017 51.2247C54.7017 49.1355 55.0143 48.0909 55.6396 48.0909H55.9522L56.4326 48.6932C56.0157 49.105 55.8048 50.203 55.7997 51.9872C55.8505 53.8376 56.1479 55.6447 56.6918 57.4086L58.4913 57.5687H59.1166C60.5704 57.2231 61.2973 56.6258 61.2973 55.7769V55.6167C61.2973 55.3626 60.5729 54.2137 59.1242 52.1702L58.6514 50.5156C58.6514 48.6754 59.8994 47.0767 62.3953 45.7195H62.7079ZM55.9598 44.1945C56.3614 44.1945 56.7274 44.3953 57.0578 44.7969C57.0578 45.0866 56.6918 45.4323 55.9598 45.8339C55.6802 45.8339 55.4235 45.5848 55.1897 45.0866C55.3981 44.5427 55.6548 44.2453 55.9598 44.1945ZM52.3532 38.1707L52.8946 38.0487L52.9327 41.7469L52.8869 44.2097L53.0166 52.7421L52.8641 55.7387L53.1691 57.5382C53.1691 57.7263 52.9073 58.0262 52.3837 58.438L51.6136 57.8356C51.822 57.3171 51.9287 56.2725 51.9338 54.7017V54.3967L52.0024 38.6664C52.1956 38.3359 52.3125 38.1707 52.3532 38.1707ZM47.1987 45.6356C48.8609 46.1185 49.6921 46.9192 49.6921 48.0375L49.6844 48.4874C49.6844 50.7139 48.6449 52.2617 46.5658 53.131H45.4678V53.4284C45.4678 55.2279 45.9329 56.4784 46.8632 57.1799H47.3359C47.9358 57.1799 48.7669 56.3818 49.8293 54.7856L49.9894 54.9381H50.1419C49.4099 57.2358 48.3704 58.3821 47.0233 58.377C45.8033 58.377 44.8197 56.3284 44.0724 52.2312C43.8894 52.2262 43.7852 51.9745 43.7598 51.4764C44.1767 51.1663 44.5426 49.8675 44.8578 47.58C45.6711 46.2837 46.4514 45.6356 47.1987 45.6356ZM46.6192 44.0496C46.2329 44.0496 45.3001 42.6415 43.8208 39.8254V39.162L43.9657 39.1696L44.5909 39.5661C45.3229 40.9386 45.999 41.907 46.6192 42.4712H46.7869C47.0259 42.4306 47.5469 41.6376 48.3501 40.0922C48.4924 39.162 49.0821 38.6969 50.1191 38.6969L49.9132 39.1772C48.3526 42.4255 47.3588 44.0496 46.9318 44.0496H46.6192ZM45.3153 51.179C45.3916 51.6822 45.5492 51.9339 45.7881 51.9339H46.7183C47.9688 51.3747 48.5941 50.2259 48.5941 48.4874V48.3349C48.4517 47.3385 47.9866 46.8404 47.1987 46.8404C45.9482 46.8353 45.3204 48.2815 45.3153 51.179ZM37.6064 36.5085C38.13 36.8135 38.3918 37.2125 38.3918 37.7056H38.5367C39.4924 37.1363 40.3794 36.7932 41.1978 36.6762C42.0823 36.6762 42.6491 37.3218 42.8982 38.613C42.8982 39.4263 42.1204 41.3249 40.5649 44.3089L40.5573 44.469L41.9527 44.3089C42.7304 44.3089 43.3049 45.1095 43.6759 46.7107C43.6709 48.7644 42.5703 51.4611 40.3743 54.8009C39.0425 56.4784 37.6903 57.9754 36.3178 59.292H35.8603C35.5401 59.1954 35.3799 58.8955 35.3799 58.3922C36.0103 56.7402 36.3305 53.2428 36.3407 47.9002L35.8832 47.458V47.2979L36.3407 46.1007C36.3509 39.7059 36.6203 36.5085 37.1489 36.5085H37.6064ZM37.4387 48.1976V48.6551L37.2557 56.1505H37.4234C38.74 56.1556 40.3031 53.8071 42.1128 49.105L42.4254 47.9079C42.4305 46.3066 42.0162 45.506 41.1826 45.506C38.6866 46.3702 37.4387 47.2674 37.4387 48.1976ZM37.5988 40.1075L37.4463 44.7587V45.4984H37.9038C40.3997 43.0787 41.6502 40.7836 41.6553 38.613C41.4621 38.1606 41.2537 37.914 41.0301 37.8734C39.9778 37.8683 38.8341 38.613 37.5988 40.1075ZM25.4217 46.3066L25.8868 46.3142L26.3519 46.6116L26.1994 48.861C26.479 54.1578 26.9416 56.8062 27.5872 56.8062H27.8922V56.9587C27.8922 57.4976 27.6838 57.8458 27.2669 58.0034H26.6493C26.2325 58.0034 25.869 56.9028 25.5589 54.7017H25.4064C24.7964 58.1025 23.8586 59.8003 22.5928 59.7952C21.8659 59.7952 21.505 58.7455 21.5101 56.6461V54.9991C21.5202 50.4089 22.4073 47.8113 24.1712 47.2064C24.4559 47.2064 24.8727 46.9064 25.4217 46.3066ZM22.6004 54.5492V56.6461C22.5954 57.7492 22.7504 58.3007 23.0656 58.3007C23.7366 58.3007 24.4152 55.7032 25.1014 50.508V50.3555C25.0303 48.9576 24.8752 48.2586 24.6363 48.2586H24.1712C23.1291 48.2535 22.6055 50.3504 22.6004 54.5492ZM18.5287 36.9965C19.0421 36.9965 19.2963 37.4972 19.2912 38.4986L18.9786 39.3907L18.9709 43.8895L19.7411 55.449L19.5733 56.0437L19.8859 57.8432C19.6877 58.2957 19.4793 58.5422 19.2607 58.5829H18.8032C18.4118 58.5829 17.7916 57.0833 16.9427 54.0841C14.401 47.2979 12.8964 43.798 12.4287 43.5845C12.1491 43.5794 11.9382 45.2772 11.7958 48.678L11.9559 50.7749L11.7882 52.1321L12.0932 56.7681L11.6357 57.3705H11.4679C10.9291 57.3705 10.619 57.2231 10.5377 56.9282L10.8503 52.5744L10.7054 52.4295L10.8579 51.6746L10.8656 45.3764C10.8707 44.1767 11.0816 43.2769 11.4984 42.6771V42.3797L10.8732 41.6401V41.1826C11.0816 40.781 11.3942 40.5802 11.8111 40.5802C12.2686 40.5802 13.1531 42.1815 14.4646 45.384C15.0847 46.5582 16.015 49.1101 17.2553 53.0395L18.4982 55.4414H18.6431V53.7867L17.8958 40.4506L18.0483 38.3537L17.9034 37.5912C17.9746 37.3015 18.183 37.1032 18.5287 36.9965Z" fill="#54361C"/>
</svg>
