<svg width="310" height="238" viewBox="0 0 310 238" fill="none" xmlns="http://www.w3.org/2000/svg">
<path d="M132.811 84.7749H132.817C135.952 84.8123 139.83 84.9788 143.132 86.0999C146.454 87.228 149.262 89.3512 150.094 93.318L150.095 93.3203C150.712 96.3315 150.38 99.6222 149.789 102.834C149.505 104.378 149.158 105.916 148.823 107.404L148.781 107.592C148.432 109.142 148.099 110.633 147.859 112.038L147.858 112.04C147.112 116.338 146.347 120.636 145.582 124.933L145.581 124.934C144.816 129.231 144.051 133.526 143.305 137.822L143.305 137.824L143.303 137.834C140.244 155.019 137.184 172.203 134.199 189.312C134.199 189.312 134.199 189.312 134.199 189.313L134.084 189.971C132.704 197.899 131.311 205.908 129.491 213.777L129.49 213.78C128.593 217.522 127.619 221.274 126.419 224.954L126.418 224.957C126.352 225.155 126.286 225.354 126.22 225.555C125.688 227.159 125.135 228.828 124.462 230.379M132.811 84.7749L121.494 230.033M132.811 84.7749H132.807H132.803H132.799H132.795H132.791H132.787H132.783H132.779H132.775H132.772H132.768H132.764H132.76H132.756H132.752H132.748H132.744H132.74H132.736H132.732H132.729H132.725H132.721H132.717H132.713H132.709H132.705H132.701H132.697H132.693H132.69H132.686H132.682H132.678H132.674H132.67H132.666H132.662H132.659H132.655H132.651H132.647H132.643H132.639H132.635H132.631H132.628H132.624H132.62H132.616H132.612H132.608H132.604H132.601H132.597H132.593H132.589H132.585H132.581H132.578H132.574H132.57H132.566H132.562H132.558H132.555H132.551H132.547H132.543H132.539H132.535H132.532H132.528H132.524H132.52H132.516H132.513H132.509H132.505H132.501H132.497H132.493H132.49H132.486H132.482H132.478H132.474H132.471H132.467H132.463H132.459H132.455H132.452H132.448H132.444H132.44H132.437H132.433H132.429H132.425H132.421H132.418H132.414H132.41H132.406H132.402H132.399H132.395H132.391H132.387H132.384H132.38H132.376H132.372H132.369H132.365H132.361H132.357H132.354H132.35H132.346H132.342H132.339H132.335H132.331H132.327H132.324H132.32H132.316H132.312H132.309H132.305H132.301H132.297H132.294H132.29H132.286H132.282H132.279H132.275H132.271H132.267H132.264H132.26H132.256H132.253H132.249H132.245H132.241H132.238H132.234H132.23H132.227H132.223H132.219H132.215H132.212H132.208H132.204H132.201H132.141H132.138H132.134H132.13H132.127H132.123H132.119H132.116H132.112H132.108H132.105H132.101H132.097H132.094H132.09H132.086H132.083H132.079H132.075H132.072H132.068H132.064H132.061H132.057H132.053H132.05H132.046H132.042H132.039H132.035H132.031H132.028H132.024H132.02H132.017H132.013H132.009H132.006H132.002H131.998H131.995H131.991H131.988H131.984H131.98H131.977H131.973H131.969H131.966H131.962H131.958H131.955H131.951H131.948H131.944H131.94H131.937H131.933H131.929H131.926H131.922H131.919H131.915H131.911H131.908H131.904H131.9H131.897H131.893H131.89H131.886H131.882H131.879H131.875H131.871H131.868H131.864H131.861H131.857H131.853H131.85H131.846H131.843H131.839H131.835H131.832H131.828H131.825H131.821H131.817H131.814H131.81H131.807H131.803H131.799H131.796H131.792H131.789H131.785H131.781H131.778H131.774H131.771H131.767H131.763H131.76H131.756H131.753H131.749H131.745H131.742H131.738H131.735H131.731H131.728H131.724H131.72H131.717H131.713H131.71H131.706H131.703H131.699H131.695H131.692H131.688H131.685H131.681H131.678H131.674H131.67H131.667H131.663H131.66H131.656H131.653H131.649H131.645H131.642H131.638H131.635H131.631H131.628H131.624H131.62H131.617H131.613H131.61H131.606H131.603H131.599H131.596H131.592H131.588H131.585H131.581H131.578H131.574H131.571H131.567H131.564H131.56H131.556H131.553H131.549H131.546H131.542H131.539H131.535H131.532H131.528H131.525H131.521H131.517H131.514H131.51H131.507H131.503H131.5H131.496H131.493H131.489H131.486H131.482H131.479H131.475H131.471H131.468H131.464H131.461H131.457H131.454H131.45H131.447H131.443H131.44H131.436H131.433H131.429H131.426H131.422H131.418H131.415H131.411H131.408H131.404H131.401H131.397H131.394H131.39H131.387H131.383H131.38H131.376H131.373H131.369H131.366H131.362H131.359H131.355H131.351H131.348H131.344H131.341H131.337H131.334H131.33H131.327H131.323H131.32H131.316H131.313H131.309H131.306H131.302H131.299H131.295H131.292H131.288H131.285H131.281H131.278H131.274H131.271H131.267H131.264H131.26H131.257H131.253H131.25H131.246H131.243H131.239H131.235H131.232H131.228H131.225H131.221H131.218H131.214H131.211H131.207H131.204H131.2H131.197H131.193H131.19H131.186H131.183H131.179H131.176H131.172H131.169H131.165H131.162H131.158H131.155H131.151H131.148H131.144H131.141H131.137H131.134H131.13H131.127H131.123H131.12H131.116H131.113H131.085H131.081H131.078H131.074H131.071H131.067H131.064H131.06H131.057H131.053H131.05H131.046H131.043H131.039H131.036H131.032H131.029H131.025H131.022H131.018H131.015H131.011H131.008H131.004H131.001H130.997H130.994H130.99H130.987H130.983H130.98H130.976H130.973H130.969H130.966H130.962H130.959H130.955H130.952H130.948H130.945H130.521L130.452 85.1924C128.061 99.4765 126.119 113.834 124.551 128.266L124.551 128.268M132.811 84.7749L124.551 128.268M124.462 230.379L124.004 230.18L124.462 230.378C124.462 230.378 124.462 230.378 124.462 230.379ZM124.462 230.379C124.163 231.071 123.903 231.615 123.672 231.986C123.557 232.169 123.432 232.338 123.294 232.464C123.161 232.584 122.939 232.729 122.653 232.693C122.367 232.658 122.189 232.461 122.09 232.312C121.987 232.156 121.91 231.962 121.846 231.758C121.718 231.346 121.606 230.763 121.494 230.033M121.494 230.033C121.494 230.034 121.494 230.035 121.494 230.035L121.987 229.956L121.494 230.031C121.494 230.032 121.494 230.032 121.494 230.033ZM120.742 179.116C120.742 179.116 120.742 179.116 120.742 179.116L121.241 179.138L120.742 179.116ZM120.742 179.116C121.489 162.142 122.758 145.167 124.551 128.268M120.742 179.116L124.551 128.268M141.281 31.0569L141.101 31.8367L141.88 31.6564C163.525 26.6496 185.17 21.7176 206.816 16.7853C239.879 9.31276 273.347 2.52365 307.325 2.15026C308.078 2.15093 308.61 2.43668 308.958 2.83995C309.315 3.2538 309.504 3.82068 309.5 4.40259C309.496 4.98439 309.3 5.54526 308.935 5.94982C308.579 6.34439 308.035 6.62164 307.258 6.60576L307.248 6.60557L307.239 6.60574C298.718 6.75541 290.196 7.20444 281.672 8.02787C251.6 10.9291 222.083 17.775 192.727 24.5833C188.016 25.676 183.309 26.7677 178.604 27.842L178.602 27.8425C165.765 30.8314 153.002 33.7457 140.164 36.6602L139.859 36.7294L139.788 37.034C136.501 51.094 133.663 65.3026 131.199 79.5099L131.1 80.0751L131.674 80.095C137.041 80.2816 142.55 80.8605 146.845 82.8783C148.985 83.8834 150.809 85.2393 152.167 87.0708C153.523 88.9003 154.433 91.2299 154.705 94.2135L154.706 94.2165C154.998 97.2134 154.652 100.337 154.095 103.469C153.817 105.033 153.487 106.593 153.161 108.136L153.15 108.188C152.827 109.711 152.508 111.22 152.248 112.689L152.247 112.691C151.501 116.986 150.736 121.282 149.971 125.579L149.971 125.58L149.971 125.58C149.206 129.877 148.441 134.175 147.694 138.473C144.564 156.008 141.434 173.618 138.304 191.227L138.29 191.306L138.29 191.308C138.135 192.196 137.981 193.084 137.828 193.971C136.571 201.231 135.319 208.465 133.594 215.639L133.593 215.643C132.625 219.816 131.51 223.908 130.1 227.921L130.1 227.921L130.096 227.933C129.945 228.397 129.8 228.881 129.652 229.376C129.345 230.399 129.024 231.469 128.614 232.509C128.009 234.041 127.246 235.402 126.152 236.292C124.443 237.66 122.116 237.868 120.196 236.907C117.768 235.691 117.338 233.426 116.884 230.7C115.695 222.666 115.397 214.624 115.397 206.491C115.546 165.94 119.052 125.312 125.691 85.2071L125.785 84.6358L125.206 84.6255C112.591 84.4014 99.9767 84.1958 87.3624 83.9903C74.7479 83.7848 62.1339 83.5793 49.52 83.3551L49.5194 83.3551C48.8756 83.3445 48.232 83.3342 47.5885 83.3239C39.1971 83.1899 30.8345 83.0564 22.4738 82.0879L22.4706 82.0876C18.3773 81.6405 14.3695 81.0455 10.3669 80.0808L10.367 80.0806L10.3555 80.0782C9.9138 79.9825 9.45103 79.8925 8.97578 79.8001C7.91947 79.5947 6.80154 79.3773 5.71583 79.0594C4.1478 78.6004 2.7692 77.9616 1.89477 76.9514L1.89381 76.9503C0.694517 75.573 0.378233 74.3753 0.539018 73.3359C0.703501 72.2726 1.38305 71.2657 2.39845 70.321C4.28653 68.5645 7.1364 67.199 9.17097 66.2242C9.33449 66.1458 9.49275 66.07 9.64482 65.9967C23.6246 59.2961 38.6563 55.3452 53.7298 51.8337C62.1613 49.8914 70.6116 47.9677 79.0626 46.0438L79.0681 46.0426C87.5211 44.1183 95.9748 42.1938 104.41 40.2506L104.413 40.25C113.223 38.1709 122.086 36.1449 130.914 34.1267C132.555 33.7516 134.195 33.3767 135.833 33.0018L136.138 32.9321L136.209 32.628C138.596 22.3968 141.206 12.1651 143.966 2.08228C144.171 1.36195 144.591 0.929399 145.08 0.70272C145.583 0.469934 146.191 0.440276 146.765 0.599972C147.34 0.759687 147.843 1.09857 148.15 1.55528C148.448 2.00023 148.581 2.58612 148.377 3.30798L148.376 3.3124C146.136 11.5355 143.971 19.7603 141.954 27.9862L141.952 27.9934L141.951 28.0006C141.726 29.0477 141.503 30.09 141.281 31.0569ZM132.811 85.2749C139.081 85.3497 148.038 85.9475 149.605 93.4207L130.945 85.2749H132.811ZM126.093 80.0953H126.514L126.586 79.6809C128.973 65.9391 131.733 52.2708 134.717 38.7502L134.888 37.9772L134.117 38.1552C124.08 40.4714 114.024 42.7689 103.967 45.0665L103.963 45.0676L103.962 45.0677C93.9049 47.3656 83.8467 49.6636 73.8071 51.9804C71.2693 52.5622 68.7264 53.1348 66.1817 53.7078C52.7264 56.7377 39.2187 59.7794 26.1359 64.2506L26.1315 64.2521C22.0987 65.6728 18.0515 67.1731 14.1494 68.9761C12.2773 69.8009 10.4025 70.7017 8.60038 71.6788C8.54323 71.7074 8.48621 71.7358 8.42949 71.7642C8.01606 71.9706 7.61812 72.1693 7.29381 72.3579C7.10705 72.4665 6.93125 72.5793 6.78258 72.6971C6.63843 72.8113 6.49111 72.9524 6.392 73.1249C6.28485 73.3115 6.22824 73.5491 6.30896 73.8032C6.38296 74.0361 6.54919 74.2068 6.71873 74.332C7.05077 74.5771 7.59016 74.788 8.32247 74.9948L8.32885 74.9965C16.7378 77.2517 25.3618 78.151 33.964 78.5255L33.965 78.5255C42.7915 78.8916 51.6223 79.0018 60.4191 79.1115C64.2018 79.1587 67.9782 79.2059 71.7452 79.2732C80.0672 79.4227 88.3891 79.5534 96.7104 79.6842L96.7139 79.6842C105.036 79.815 113.358 79.9458 121.68 80.0953V80.0953H121.689H121.698H121.706H121.714H121.722H121.731H121.739H121.747H121.756H121.764H121.772H121.781H121.789H121.797H121.806H121.814H121.822H121.83H121.839H121.847H121.855H121.864H121.872H121.88H121.889H121.897H121.905H121.914H121.922H121.93H121.939H121.947H121.955H121.963H121.972H121.98H121.988H121.997H122.005H122.013H122.022H122.03H122.038H122.047H122.055H122.063H122.072H122.08H122.088H122.097H122.105H122.113H122.121H122.13H122.138H122.146H122.155H122.163H122.171H122.18H122.188H122.196H122.205H122.213H122.221H122.23H122.238H122.246H122.255H122.263H122.271H122.28H122.288H122.296H122.305H122.313H122.321H122.33H122.338H122.346H122.355H122.363H122.371H122.38H122.388H122.396H122.405H122.413H122.421H122.43H122.438H122.446H122.455H122.463H122.471H122.48H122.488H122.496H122.505H122.513H122.521H122.53H122.538H122.546H122.555H122.563H122.571H122.58H122.588H122.596H122.605H122.613H122.621H122.63H122.638H122.647H122.655H122.663H122.672H122.68H122.688H122.697H122.705H122.713H122.722H122.73H122.738H122.747H122.755H122.764H122.772H122.78H122.789H122.797H122.805H122.814H122.822H122.831H122.839H122.847H122.856H122.864H122.872H122.881H122.889H122.898H122.906H122.914H122.923H122.931H122.939H122.948H122.956H122.965H122.973H122.981H122.99H122.998H123.007H123.015H123.023H123.032H123.04H123.049H123.057H123.065H123.074H123.082H123.091H123.099H123.107H123.116H123.124H123.133H123.141H123.149H123.158H123.166H123.175H123.183H123.191H123.2H123.208H123.217H123.225H123.234H123.242H123.25H123.259H123.267H123.276H123.284H123.293H123.301H123.309H123.318H123.326H123.335H123.343H123.352H123.36H123.369H123.377H123.385H123.394H123.402H123.411H123.419H123.428H123.436H123.445H123.453H123.461H123.47H123.478H123.487H123.495H123.504H123.512H123.521H123.529H123.538H123.546H123.555H123.563H123.572H123.58H123.589H123.597H123.605H123.614H123.622H123.631H123.639H123.648H123.656H123.665H123.673H123.682H123.69H123.699H123.707H123.716H123.724H123.733H123.741H123.75H123.758H123.767H123.776H123.784H123.793H123.801H123.81H123.818H123.827H123.835H123.844H123.852H123.861H123.869H123.878H123.886H123.895H123.903H123.912H123.921H123.929H123.938H123.946H123.955H123.963H123.972H123.98H123.989H123.998H124.006H124.015H124.023H124.032H124.04H124.049H124.058H124.066H124.075H124.083H124.092H124.1H124.109H124.118H124.126H124.135H124.143H124.152H124.161H124.169H124.178H124.186H124.195H124.204H124.212H124.221H124.229H124.238H124.247H124.255H124.264H124.272H124.281H124.29H124.298H124.307H124.316H124.324H124.333H124.342H124.35H124.359H124.367H124.376H124.385H124.393H124.402H124.411H124.419H124.428H124.437H124.445H124.454H124.463H124.471H124.48H124.489H124.497H124.506H124.515H124.523H124.532H124.541H124.55H124.558H124.567H124.576H124.584H124.593H124.602H124.61H124.619H124.628H124.637H124.645H124.654H124.663H124.671H124.68H124.689H124.698H124.706H124.715H124.724H124.733H124.741H124.75H124.759H124.768H124.776H124.785H124.794H124.803H124.811H124.82H124.829H124.838H124.846H124.855H124.864H124.873H124.882H124.89H124.899H124.908H124.917H124.926H124.934H124.943H124.952H124.961H124.97H124.978H124.987H124.996H125.005H125.014H125.022H125.031H125.04H125.049H125.058H125.067H125.075H125.084H125.093H125.102H125.111H125.12H125.129H125.137H125.146H125.155H125.164H125.173H125.182H125.191H125.199H125.208H125.217H125.226H125.235H125.244H125.253H125.262H125.271H125.28H125.288H125.297H125.306H125.315H125.324H125.333H125.342H125.351H125.36H125.369H125.378H125.387H125.396H125.404H125.413H125.422H125.431H125.44H125.449H125.458H125.467H125.476H125.485H125.494H125.503H125.512H125.521H125.53H125.539H125.548H125.557H125.566H125.575H125.584H125.593H125.602H125.611H125.62H125.629H125.638H125.647H125.656H125.665H125.674H125.683H125.692H125.701H125.71H125.719H125.728H125.737H125.746H125.756H125.765H125.774H125.783H125.792H125.801H125.81H125.819H125.828H125.837H125.846H125.855H125.865H125.874H125.883H125.892H125.901H125.91H125.919H125.928H125.937H125.947H125.956H125.965H125.974H125.983H125.992H126.001H126.011H126.02H126.029H126.038H126.047H126.056H126.066H126.075H126.084H126.093Z" fill="black" stroke="black"/>
</svg>
