<?xml version="1.0" standalone="no"?>
<!DOCTYPE svg PUBLIC "-//W3C//DTD SVG 20010904//EN"
 "http://www.w3.org/TR/2001/REC-SVG-20010904/DTD/svg10.dtd">
<svg version="1.0" xmlns="http://www.w3.org/2000/svg"
 width="700.000000pt" height="700.000000pt" viewBox="0 0 700.000000 700.000000"
 preserveAspectRatio="xMidYMid meet">
<metadata>
Created by potrace 1.14, written by Peter Selinger 2001-2017
</metadata>
<g transform="translate(0.000000,700.000000) scale(0.100000,-0.100000)"
fill="#000000" stroke="none">
<path d="M473 6782 c-23 -2 -33 -9 -34 -20 -4 -81 -1 -6523 3 -6527 4 -5 381
-7 971 -5 l107 0 0 1958 1 1957 32 -65 c18 -36 47 -92 64 -125 17 -33 58 -114
91 -180 56 -113 336 -669 1207 -2400 205 -407 419 -832 475 -944 l102 -204 25
49 c14 27 73 143 133 259 59 116 158 309 220 430 62 121 145 283 185 360 40
77 123 239 185 360 62 121 150 292 195 380 45 88 133 259 195 380 62 121 145
283 185 360 40 77 134 262 211 410 76 149 189 369 251 490 63 121 137 266 166
323 28 56 54 102 57 102 3 0 5 -878 5 -1950 l-1 -1950 21 0 c264 -3 1029 1
1033 5 8 8 8 6536 0 6541 -5 3 -623 6 -974 4 l-81 0 -38 -82 c-21 -46 -53
-114 -70 -153 -18 -38 -49 -106 -70 -150 -48 -104 -81 -175 -143 -310 -28 -60
-67 -146 -87 -190 -55 -118 -86 -185 -155 -335 -34 -74 -74 -162 -90 -195 -15
-33 -49 -104 -74 -158 -25 -54 -46 -99 -46 -101 0 -2 -27 -61 -60 -130 -33
-70 -60 -128 -60 -130 0 -2 -22 -51 -49 -107 -26 -57 -61 -131 -76 -164 -38
-81 -156 -337 -188 -405 -14 -30 -53 -116 -87 -190 -35 -74 -78 -169 -97 -210
-34 -72 -304 -658 -356 -770 -14 -30 -44 -95 -67 -145 -23 -49 -51 -110 -62
-135 -11 -25 -42 -90 -68 -146 -26 -55 -51 -111 -55 -123 -4 -13 -10 -19 -15
-15 -4 5 -37 75 -73 155 -36 80 -77 170 -90 200 -46 99 -75 163 -120 264 -58
129 -90 200 -138 303 -22 46 -39 86 -39 88 0 2 -26 61 -59 131 -54 118 -212
467 -581 1283 -189 418 -287 634 -315 695 -40 89 -65 144 -231 512 -90 200
-178 393 -195 430 -17 38 -51 113 -76 168 -25 55 -48 103 -52 108 -7 7 -979
16 -1048 9z"/>
</g>
</svg>
