<?xml version="1.0" standalone="no"?>
<!DOCTYPE svg PUBLIC "-//W3C//DTD SVG 20010904//EN"
 "http://www.w3.org/TR/2001/REC-SVG-20010904/DTD/svg10.dtd">
<svg version="1.0" xmlns="http://www.w3.org/2000/svg"
 width="277.000000pt" height="277.000000pt" viewBox="0 0 277.000000 277.000000"
 preserveAspectRatio="xMidYMid meet">
<metadata>
Created by potrace 1.14, written by Peter Selinger 2001-2017
</metadata>
<g transform="translate(0.000000,277.000000) scale(0.100000,-0.100000)"
fill="#000000" stroke="none">
<path d="M1141 2633 c-14 -9 -21 -11 -17 -5 4 7 2 12 -3 12 -6 0 -11 -7 -11
-15 0 -8 -6 -15 -12 -15 -9 0 -8 -4 2 -10 8 -5 11 -10 6 -10 -5 0 -3 -6 3 -14
9 -11 9 -16 0 -22 -8 -5 -9 -3 -4 6 5 9 4 11 -3 6 -7 -4 -12 -16 -12 -26 0
-10 -5 -22 -12 -26 -7 -4 -8 -3 -4 4 4 7 3 12 -3 12 -5 0 -8 -14 -6 -31 3 -26
1 -29 -11 -18 -12 10 -13 9 -8 -5 3 -9 10 -16 15 -16 5 0 9 -5 9 -11 0 -5 -6
-7 -12 -3 -10 6 -10 4 0 -8 10 -13 10 -17 0 -21 -11 -4 -10 -7 0 -15 8 -5 14
-13 14 -17 0 -4 -6 -12 -14 -16 -10 -7 -10 -9 0 -9 6 0 12 -5 12 -11 0 -5 -4
-8 -8 -5 -5 3 -9 -1 -9 -9 0 -8 5 -15 11 -15 6 0 4 -5 -4 -10 -12 -8 -12 -10
-1 -10 11 0 11 -3 0 -17 -11 -13 -11 -17 -1 -20 6 -3 12 -9 12 -14 0 -6 -6 -7
-12 -3 -9 5 -9 2 1 -9 10 -13 10 -17 1 -17 -9 0 -9 -4 1 -17 10 -11 10 -14 2
-9 -7 4 -13 2 -13 -3 0 -6 5 -11 10 -11 6 0 10 -5 10 -11 0 -5 -6 -7 -12 -3
-10 6 -10 4 0 -8 10 -13 10 -17 0 -21 -8 -4 -9 -8 -3 -14 6 -4 11 -18 11 -31
1 -18 -1 -20 -13 -11 -11 10 -12 9 -7 -5 3 -9 10 -16 15 -16 5 0 9 -5 9 -11 0
-5 -6 -7 -12 -3 -10 6 -10 4 0 -8 10 -13 10 -17 0 -21 -11 -4 -10 -7 0 -15 8
-5 14 -13 14 -17 0 -4 -6 -12 -14 -16 -7 -5 -8 -9 -2 -9 5 0 10 -11 10 -25 0
-19 -3 -22 -13 -13 -18 15 -16 3 3 -16 12 -12 12 -16 2 -16 -10 0 -9 -3 2 -10
12 -7 11 -13 -10 -35 -14 -15 -20 -26 -15 -25 20 4 35 0 35 -11 0 -5 -4 -7
-10 -4 -6 4 -10 -5 -10 -20 0 -18 4 -24 13 -20 6 4 2 -2 -11 -14 -22 -19 -22
-20 -2 -26 11 -4 18 -10 15 -15 -3 -5 -13 -7 -23 -4 -9 3 -6 -2 8 -10 25 -15
25 -15 3 -16 -13 0 -23 -5 -23 -11 0 -5 5 -7 10 -4 6 3 10 -1 10 -10 0 -11 -5
-15 -16 -11 -8 3 -13 2 -9 -3 3 -5 -1 -12 -7 -15 -7 -3 -3 -3 9 -1 12 3 25 0
29 -6 4 -8 3 -9 -5 -5 -6 4 -18 2 -26 -4 -21 -18 -19 -35 3 -19 16 13 16 13 2
-5 -8 -10 -16 -30 -17 -45 -3 -20 -1 -23 7 -11 5 8 10 10 10 4 0 -6 -7 -17
-15 -24 -8 -7 -15 -18 -14 -24 0 -7 2 -6 6 2 2 6 8 12 12 12 9 0 8 -30 -1 -45
-3 -6 -4 -18 -3 -27 2 -11 -2 -15 -11 -11 -20 7 -17 -7 4 -23 15 -13 14 -13
-9 -5 -19 7 -26 6 -26 -4 0 -8 3 -14 6 -13 20 2 31 -4 31 -16 0 -8 6 -17 13
-19 10 -4 10 -6 0 -6 -7 -1 -13 -6 -13 -12 0 -5 5 -7 10 -4 13 8 13 -1 -1 -27
-7 -13 -7 -18 -1 -14 6 3 13 2 17 -4 3 -5 -1 -10 -9 -10 -9 0 -16 -5 -16 -11
0 -6 7 -9 15 -6 8 4 17 1 21 -5 5 -7 2 -8 -6 -3 -10 6 -12 4 -7 -8 4 -11 2
-14 -7 -11 -8 3 -17 0 -21 -6 -3 -6 -3 -10 2 -9 4 1 16 -1 25 -5 14 -6 15 -11
5 -21 -7 -7 -14 -12 -17 -10 -3 2 -6 -8 -6 -21 -1 -13 1 -22 5 -19 13 7 6 -42
-7 -58 -10 -12 -10 -17 -1 -23 8 -4 9 -3 5 4 -4 7 -2 12 3 12 14 0 14 -6 -1
-30 -11 -17 -10 -22 2 -30 13 -9 7 -14 -12 -11 -4 0 -5 -6 -2 -14 4 -8 10 -12
16 -9 5 3 4 -4 -4 -15 -11 -18 -11 -23 2 -31 14 -9 6 -15 -15 -10 -5 1 -1 -7
8 -18 14 -15 15 -22 6 -28 -8 -5 -10 -3 -4 6 6 9 4 11 -4 5 -9 -5 -10 -10 -2
-18 15 -15 14 -30 -1 -21 -10 6 -10 5 -1 -8 7 -8 10 -18 6 -21 -3 -4 -1 -7 6
-7 7 0 9 -5 6 -10 -4 -6 -12 -8 -18 -4 -7 3 -4 -1 6 -9 15 -12 15 -16 3 -20
-11 -5 -13 -13 -7 -35 5 -17 5 -36 -2 -48 -9 -16 -8 -17 4 -7 12 10 15 8 15
-7 0 -10 -4 -16 -9 -13 -4 2 -5 -7 -1 -21 3 -15 0 -38 -9 -56 -9 -17 -13 -28
-9 -26 4 2 13 -2 20 -10 7 -8 8 -14 3 -14 -6 0 -10 -19 -9 -43 2 -31 -4 -51
-22 -75 -13 -17 -28 -32 -33 -32 -4 0 -1 -7 7 -16 18 -18 22 -39 4 -28 -7 5
-8 3 -2 -7 12 -20 14 -39 3 -39 -6 0 -5 -8 1 -20 9 -16 8 -20 -5 -20 -9 0 -13
-5 -10 -10 4 -6 12 -7 18 -3 8 5 8 2 0 -9 -7 -8 -11 -17 -8 -20 3 -3 -2 -11
-12 -19 -11 -9 -14 -10 -9 -1 4 6 2 12 -3 12 -11 0 -15 -13 -12 -39 2 -7 -2
-11 -7 -7 -11 7 -8 -21 6 -56 12 -28 29 -41 19 -14 -4 10 -1 13 7 10 15 -6 17
-34 3 -34 -6 0 -7 -3 -4 -6 4 -4 14 -1 24 7 14 12 16 12 8 0 -6 -11 -4 -13 8
-8 11 4 17 1 17 -8 0 -8 5 -15 11 -15 5 0 8 -4 5 -8 -2 -4 4 -8 14 -8 10 0 16
4 14 8 -3 4 0 8 6 8 6 0 8 5 4 12 -5 7 0 9 14 6 14 -4 19 -2 16 7 -3 8 4 16
17 20 15 5 18 10 9 15 -8 5 -7 9 5 14 9 3 22 3 28 -1 7 -4 5 2 -3 12 -9 11
-10 16 -2 11 7 -4 15 -1 18 8 3 9 12 16 20 16 8 0 14 3 14 8 0 4 10 12 23 17
12 6 21 18 21 27 -1 10 3 15 9 11 6 -4 8 0 4 11 -6 14 -4 15 16 5 20 -11 21
-11 8 4 -12 15 -11 17 3 17 9 0 16 5 16 11 0 5 -5 7 -12 3 -6 -4 -8 -3 -4 4 3
6 15 9 26 7 14 -3 17 1 13 12 -4 10 -2 14 4 10 12 -8 26 20 18 33 -3 5 3 7 14
5 11 -2 22 3 25 11 4 10 2 13 -7 8 -9 -6 -9 -4 1 8 9 11 10 18 2 23 -13 8 -13
25 1 25 5 0 7 -6 4 -12 -4 -7 0 -5 9 6 8 10 19 16 24 12 5 -3 9 1 9 9 0 8 -5
11 -10 8 -6 -3 -7 -1 -3 5 4 7 14 12 22 12 8 0 13 4 10 9 -3 5 3 11 14 14 11
3 20 9 19 14 -4 20 2 24 18 12 10 -8 14 -9 10 -2 -4 7 0 17 10 23 17 11 17 11
-1 6 -16 -6 -17 -4 -6 9 7 9 19 14 26 11 8 -3 11 2 9 14 -2 11 1 23 7 26 6 4
8 2 4 -4 -3 -6 -3 -13 2 -16 13 -8 11 27 -2 43 -9 12 -8 13 3 6 11 -6 13 -4 8
7 -8 22 3 30 20 16 11 -8 12 -7 7 6 -4 10 0 18 10 22 12 4 14 10 6 18 -7 9 -5
19 5 32 8 10 15 15 15 10 0 -5 7 -3 15 4 11 9 12 17 4 32 -8 16 -8 19 1 13 9
-5 10 -1 5 14 -5 18 -2 24 14 28 12 3 21 10 21 15 0 5 -5 6 -12 2 -7 -4 -8 -3
-4 5 4 6 11 9 16 6 5 -3 11 -1 15 5 3 5 1 10 -4 10 -13 0 -10 22 4 33 6 4 4
11 -5 18 -12 8 -11 9 5 5 11 -3 27 -1 35 4 10 6 11 10 3 10 -7 0 -13 5 -13 11
0 5 4 7 10 4 6 -4 8 6 6 22 -3 27 15 58 27 46 3 -3 11 -2 17 2 8 5 8 11 -1 21
-9 11 -9 14 1 14 9 0 9 4 3 13 -10 11 -14 52 -5 43 8 -8 30 19 24 29 -3 6 3 3
13 -5 14 -11 17 -11 11 -1 -5 8 -3 17 5 23 11 8 10 9 -3 4 -13 -4 -15 -1 -11
12 3 9 11 23 17 31 8 11 8 13 -1 7 -7 -4 -13 -3 -13 3 0 5 5 13 10 16 7 5 8
11 1 18 -11 14 12 52 27 44 5 -4 8 53 8 129 0 73 -4 135 -8 135 -4 1 -12 3
-18 4 -5 1 -12 3 -15 4 -3 0 -1 11 6 22 8 15 8 19 0 15 -15 -10 -14 7 2 23 10
11 10 13 0 7 -8 -5 -13 -1 -13 9 0 11 5 15 16 11 10 -4 13 -2 8 6 -5 8 -2 9
11 4 16 -6 16 -4 4 10 -8 10 -13 19 -11 21 2 3 0 8 -4 11 -4 4 -4 1 0 -5 4 -7
3 -13 -3 -13 -6 0 -17 -12 -25 -27 -11 -21 -15 -23 -16 -10 0 10 -4 16 -9 13
-5 -3 -11 1 -15 9 -3 10 1 15 12 16 14 0 14 2 -2 8 -14 5 -16 10 -8 15 9 5 9
13 2 27 -9 16 -14 17 -32 8 -15 -8 -18 -8 -14 0 6 10 -13 16 -36 12 -12 -2
-10 13 3 26 7 7 -7 3 -30 -9 -42 -20 -55 -32 -23 -21 9 3 14 3 10 -1 -11 -13
-43 -14 -50 -2 -5 8 -8 7 -8 -1 0 -7 -5 -13 -11 -13 -5 0 -7 6 -3 13 5 8 2 8
-9 -2 -9 -7 -18 -11 -18 -7 -1 3 -2 9 -3 14 -1 4 -5 12 -9 19 -4 6 -2 15 4 19
8 4 7 9 -2 15 -11 7 -10 9 5 9 12 0 16 5 12 15 -5 13 -2 14 15 4 11 -6 23 -8
27 -5 3 3 1 6 -5 6 -5 0 -10 7 -10 15 0 8 7 15 16 15 11 0 11 3 -4 14 -18 13
-18 14 5 12 13 0 25 5 27 12 3 6 0 12 -7 12 -6 0 -8 -5 -4 -12 5 -7 3 -8 -5
-3 -9 5 -8 12 6 25 12 11 19 29 17 48 -1 19 4 36 14 44 12 10 14 10 8 1 -4 -7
-3 -13 1 -13 5 0 14 10 22 21 11 18 11 23 -1 30 -10 7 -10 9 2 9 9 0 11 3 4 8
-5 4 -10 17 -10 29 0 18 3 20 16 10 8 -6 12 -7 8 -3 -4 5 0 15 10 23 10 9 11
11 2 7 -13 -7 -13 -5 -1 9 7 9 10 17 6 17 -5 0 0 9 9 19 13 14 14 21 5 27 -8
5 -10 3 -4 -6 6 -9 4 -11 -5 -5 -10 6 -7 13 11 27 13 11 18 16 10 12 -10 -5
-12 -3 -7 5 5 8 12 9 20 2 8 -7 15 -4 24 9 7 11 8 21 2 25 -5 3 -9 13 -9 23 0
9 -1 31 -3 49 -2 17 0 30 4 27 11 -7 10 4 -3 28 -8 15 -8 19 0 14 8 -5 8 0 2
17 -6 14 -7 28 -4 31 4 3 1 6 -5 6 -7 0 -12 -6 -12 -12 -1 -7 -6 -3 -13 10 -7
12 -15 20 -18 17 -3 -3 -6 2 -6 10 0 8 4 12 9 9 4 -3 6 5 5 18 -3 15 -12 24
-26 26 -12 2 -19 8 -16 13 4 5 1 9 -4 9 -6 0 -10 6 -9 13 2 6 -3 11 -9 9 -7
-1 -13 2 -13 8 0 5 -5 10 -11 10 -5 0 -7 -6 -3 -12 6 -10 4 -10 -8 0 -13 10
-17 10 -22 0 -5 -10 -7 -10 -12 0 -3 6 -10 12 -15 12 -6 0 -7 -6 -3 -12 6 -10
4 -10 -8 0 -13 10 -17 10 -22 0 -5 -10 -7 -10 -12 0 -3 6 -10 12 -15 12 -6 0
-7 -6 -3 -12 6 -10 4 -10 -8 0 -13 10 -17 10 -21 0 -4 -10 -8 -10 -16 2 -10
13 -11 13 -11 0 0 -12 -2 -13 -9 -1 -7 10 -13 11 -27 2 -11 -6 -15 -11 -11
-11 4 0 -1 -9 -12 -21 -12 -13 -24 -18 -33 -13 -15 10 -47 13 -46 5 2 -22 -4
-31 -14 -25 -8 5 -8 1 2 -12 8 -10 11 -16 6 -12 -5 4 -17 3 -27 -3 -15 -7 -17
-6 -13 6 4 9 1 15 -7 15 -9 0 -10 3 -4 8 6 4 11 23 12 42 0 19 -1 29 -4 23 -7
-20 -28 -15 -49 10 l-19 22 24 -20 25 -20 -20 26 c-10 15 -22 25 -26 23 -4 -2
-10 0 -13 6 -5 8 -15 6 -31 -4 -20 -14 -23 -14 -18 -1 8 19 4 19 -25 -2z m375
-185 c5 -7 3 -8 -6 -3 -9 6 -11 4 -5 -5 6 -10 11 -9 22 5 7 11 13 13 13 7 0
-7 7 -12 16 -12 13 0 14 -3 5 -14 -9 -11 -9 -16 0 -22 8 -4 9 -3 5 4 -4 7 -2
12 3 12 6 0 11 -4 11 -10 0 -5 8 -10 18 -10 14 0 15 -2 2 -10 -11 -7 -11 -10
-2 -10 7 0 12 -8 10 -17 -1 -10 1 -24 5 -30 6 -9 2 -13 -10 -13 -15 0 -15 -2
-4 -9 13 -8 13 -12 0 -27 -8 -10 -9 -15 -2 -11 15 9 14 -32 -1 -52 -8 -11 -8
-13 2 -7 6 4 12 3 12 -1 0 -5 -6 -15 -12 -22 -11 -11 -10 -12 2 -6 13 8 13 6
1 -8 -7 -9 -17 -15 -21 -12 -4 3 -13 -2 -19 -9 -9 -11 -9 -16 0 -22 8 -5 9 -3
4 6 -6 9 -4 11 4 6 10 -6 9 -12 -2 -24 -7 -10 -13 -31 -12 -49 0 -17 -3 -29
-7 -27 -4 3 -8 1 -8 -5 0 -6 -6 -8 -14 -5 -11 4 -14 -4 -12 -31 1 -36 -21 -64
-38 -47 -4 3 -4 -2 0 -12 5 -14 4 -17 -4 -12 -16 9 -15 -7 0 -22 9 -9 9 -12
-1 -12 -8 0 -11 -6 -7 -15 3 -8 1 -15 -5 -15 -6 0 -7 -6 -3 -12 5 -8 0 -7 -11
2 -11 9 -16 10 -11 3 4 -8 2 -13 -4 -13 -6 0 -8 -4 -5 -10 3 -5 1 -10 -5 -10
-6 0 -8 -5 -4 -12 5 -9 2 -8 -9 1 -15 12 -17 12 -11 -4 5 -12 4 -16 -4 -12 -5
4 -22 -7 -37 -25 -15 -18 -24 -27 -19 -19 5 10 3 12 -5 7 -9 -6 -9 -11 1 -24
11 -13 10 -15 -4 -9 -10 3 -18 2 -18 -3 0 -6 -7 -10 -16 -10 -13 0 -14 -3 -4
-15 10 -12 9 -16 -4 -21 -14 -5 -14 -9 -4 -23 10 -13 10 -14 -2 -3 -20 17 -35
15 -20 -4 8 -8 9 -14 4 -13 -5 1 -11 0 -14 -1 -20 -7 -41 -7 -47 3 -10 16 -11
87 -1 81 4 -3 8 0 8 5 0 6 -6 11 -12 12 -9 0 -9 2 1 6 11 5 11 7 0 14 -12 7
-11 9 1 9 13 0 13 1 0 10 -13 9 -13 10 0 10 13 0 13 1 0 10 -13 9 -13 11 0 20
13 9 13 10 0 10 -13 0 -13 1 0 10 13 9 13 10 0 10 -13 0 -13 1 0 10 13 9 13
10 0 10 -13 0 -13 1 0 10 13 9 13 11 0 20 -13 9 -13 10 0 10 13 0 13 1 0 10
-13 9 -13 10 0 10 13 0 13 1 0 10 -13 9 -13 10 0 10 13 0 13 1 0 10 -13 9 -13
10 0 10 13 0 13 1 0 10 -13 9 -13 10 0 10 13 0 13 1 0 10 -13 9 -13 10 0 10
13 0 13 1 0 10 -13 9 -13 10 0 10 13 0 13 1 0 11 -12 9 -13 12 -1 16 11 5 11
7 0 14 -12 7 -11 9 1 9 13 0 13 1 0 10 -13 9 -13 10 0 10 13 0 13 1 0 10 -12
8 -12 10 -1 10 10 0 11 3 2 13 -8 10 -7 19 5 33 8 10 13 12 9 4 -4 -10 -2 -9
8 2 8 10 18 14 23 10 4 -4 2 2 -6 12 -8 11 -10 17 -4 13 7 -4 12 2 12 18 0 26
25 59 37 47 4 -4 5 -2 3 4 -2 7 7 26 20 43 20 28 26 30 40 19 9 -7 13 -8 9 -2
-4 6 3 20 15 30 12 11 18 14 15 7 -4 -6 -3 -14 3 -18 5 -3 10 -1 10 6 0 7 8 9
21 6 17 -5 18 -3 8 9 -10 12 -8 16 9 21 12 3 22 10 22 15 0 6 8 4 17 -3 11
-10 14 -10 9 -1 -4 6 -2 12 3 12 6 0 11 4 11 10 0 5 -8 7 -17 3 -15 -5 -14 -3
2 10 24 20 22 19 31 5z m284 -192 c0 -3 -4 -8 -10 -11 -5 -3 -10 -1 -10 4 0 6
5 11 10 11 6 0 10 -2 10 -4z m-223 -171 c0 -8 -4 -12 -9 -9 -5 3 -6 10 -3 15
9 13 12 11 12 -6z m-193 -303 c3 -5 -1 -9 -9 -9 -8 0 -12 4 -9 9 3 4 7 8 9 8
2 0 6 -4 9 -8z m400 -68 c3 -8 2 -12 -4 -9 -6 3 -10 10 -10 16 0 14 7 11 14
-7z m-178 -161 c-5 -13 -4 -14 9 -3 12 10 15 10 15 -4 0 -10 5 -14 10 -11 6 3
11 1 11 -4 1 -6 2 -17 3 -23 1 -7 10 -12 20 -10 10 2 15 -1 12 -6 -3 -6 1 -13
10 -16 13 -5 14 -9 4 -21 -7 -8 -9 -15 -5 -15 4 0 2 -6 -4 -14 -9 -11 -9 -16
0 -22 8 -4 9 -3 5 4 -4 7 -2 12 3 12 14 0 14 -13 -1 -28 -7 -7 -8 -12 -4 -12
5 0 3 -7 -4 -15 -11 -13 -10 -14 4 -9 14 5 15 3 6 -21 -13 -34 -13 -38 3 -29
8 5 8 2 -2 -9 -11 -14 -11 -17 0 -18 8 0 5 -4 -6 -9 -11 -5 -15 -9 -9 -9 19
-2 12 -31 -8 -31 -10 0 -18 -5 -18 -11 0 -5 -5 -7 -12 -3 -7 4 -8 3 -4 -5 6
-9 11 -9 23 1 15 12 15 11 3 -9 -8 -12 -17 -20 -21 -17 -4 2 -4 -10 1 -28 6
-20 6 -36 0 -43 -5 -7 -6 -16 -2 -20 4 -5 1 -5 -5 -1 -7 4 -13 2 -13 -3 0 -6
-6 -11 -14 -11 -8 0 -18 -5 -22 -12 -5 -7 -3 -8 6 -3 10 6 12 4 7 -8 -3 -9 -1
-19 4 -23 6 -4 1 -16 -13 -32 -13 -15 -16 -21 -6 -14 11 9 18 10 23 2 4 -6 3
-9 -2 -8 -12 4 -50 -37 -45 -50 2 -7 -2 -12 -10 -12 -10 0 -9 -3 2 -10 9 -6
10 -10 3 -10 -6 0 -10 -9 -8 -19 3 -16 -1 -19 -23 -15 -20 3 -23 2 -12 -5 12
-9 12 -11 -3 -17 -9 -3 -17 -10 -17 -15 0 -4 8 -6 18 -2 15 6 14 3 -3 -17 -11
-13 -14 -20 -7 -16 6 4 12 2 12 -3 0 -6 -7 -11 -15 -11 -8 0 -15 -5 -15 -11 0
-5 -4 -7 -10 -4 -5 3 -10 1 -10 -5 0 -6 -5 -8 -12 -4 -7 4 -8 3 -4 -5 4 -6 11
-9 15 -6 5 2 5 -10 2 -28 -4 -17 -16 -36 -27 -42 -12 -6 -20 -18 -18 -28 2
-15 0 -16 -13 -5 -14 11 -15 11 -5 -8 9 -18 8 -25 -8 -39 -11 -10 -20 -24 -20
-32 0 -8 -5 -11 -11 -8 -14 9 -49 -23 -43 -40 5 -13 -18 -27 -53 -34 -5 -1 -1
-6 7 -12 12 -8 10 -9 -9 -4 -18 6 -22 4 -17 -6 4 -8 0 -5 -8 5 -15 19 -16 19
-16 1 0 -18 -1 -18 -19 1 -10 10 -14 21 -10 22 5 2 9 8 9 13 0 6 -6 7 -12 3
-10 -6 -10 -5 -1 8 7 8 10 18 6 22 -10 10 -12 56 -1 50 4 -3 8 -1 8 5 0 5 -6
12 -12 14 -10 4 -9 8 2 16 13 10 13 11 0 11 -13 0 -13 1 0 10 13 9 13 10 0 10
-13 0 -13 1 0 10 13 9 13 10 0 10 -13 0 -13 1 0 10 13 9 13 11 0 20 -13 9 -13
10 0 10 13 0 13 1 0 10 -13 9 -13 10 0 10 13 0 13 1 0 10 -13 9 -13 10 0 10
13 0 13 1 0 10 -13 9 -13 10 0 10 13 0 13 1 0 10 -13 9 -13 10 0 10 13 0 13 1
0 10 -13 9 -13 10 0 10 13 0 13 1 0 10 -13 9 -13 10 0 10 13 0 13 1 0 10 -13
9 -13 11 0 20 13 9 13 10 0 10 -13 0 -13 1 0 10 13 9 13 10 0 10 -13 0 -13 1
0 10 13 9 13 10 0 10 -13 0 -13 1 0 10 13 9 13 11 0 20 -13 9 -13 10 0 10 13
0 13 1 0 10 -13 9 -13 10 0 10 13 0 13 1 0 10 -13 9 -13 10 0 10 13 0 13 1 0
10 -13 9 -13 10 0 10 13 0 13 1 0 10 -13 9 -13 10 0 10 13 0 13 1 0 10 -13 9
-13 10 0 10 13 0 13 1 0 10 -13 9 -13 10 0 10 13 0 13 1 0 10 -13 9 -13 11 0
20 13 9 13 10 0 10 -13 0 -13 1 0 10 13 9 13 10 0 10 -13 0 -13 1 0 10 13 9
13 10 0 10 -13 0 -13 1 0 10 13 9 13 11 0 20 -13 9 -13 10 0 10 13 0 13 1 0
10 -13 9 -13 10 0 10 13 0 13 1 0 10 -13 9 -13 10 0 10 13 0 13 1 0 10 -13 9
-13 10 0 10 13 0 13 1 0 10 -13 9 -13 10 0 10 13 0 13 1 0 10 -13 9 -13 10 0
10 13 0 13 1 0 10 -13 9 -13 10 0 10 9 0 11 3 5 8 -5 4 -11 13 -13 21 -3 12
-1 12 14 0 10 -8 15 -9 11 -2 -4 6 -4 19 -1 28 5 13 8 14 15 3 7 -10 9 -10 10
0 4 38 16 52 36 45 13 -5 15 -2 10 11 -4 10 -3 15 3 11 6 -3 10 2 11 12 0 10
3 13 6 6 3 -10 8 -9 20 2 12 13 18 13 31 3 13 -11 14 -11 7 1 -6 11 -4 13 10
7 16 -6 16 -4 4 11 -9 11 -10 14 -1 9 7 -4 12 -2 12 5 0 7 3 10 6 7 3 -4 14 2
25 13 11 11 24 17 29 14 5 -3 14 3 20 14 6 12 16 18 25 15 8 -4 12 -11 9 -16
-4 -6 -10 -5 -15 3 -6 10 -9 10 -9 2 0 -20 17 -24 30 -7 11 12 15 12 21 2 7
-11 9 -11 9 0 0 7 5 10 12 6 7 -4 8 -3 4 5 -4 6 0 14 8 17 9 3 16 13 16 21 0
12 3 12 16 -2 9 -8 13 -23 10 -32z m-556 -263 c0 -5 -5 -10 -11 -10 -5 0 -7 5
-4 10 3 6 8 10 11 10 2 0 4 -4 4 -10z m314 -748 c3 -5 -1 -9 -9 -9 -8 0 -12 4
-9 9 3 4 7 8 9 8 2 0 6 -4 9 -8z m-129 -362 c-3 -5 -12 -10 -18 -10 -7 0 -6 4
3 10 19 12 23 12 15 0z m-298 -65 c0 -8 -4 -12 -9 -9 -5 3 -6 10 -3 15 9 13
12 11 12 -6z m108 -93 c-3 -3 -11 0 -18 7 -9 10 -8 11 6 5 10 -3 15 -9 12 -12z"/>
<path d="M1323 2324 c-15 -16 -16 -24 -4 -24 8 0 24 30 19 35 -2 2 -9 -3 -15
-11z"/>
<path d="M1256 1402 c-3 -5 1 -9 9 -9 8 0 12 4 9 9 -3 4 -7 8 -9 8 -2 0 -6 -4
-9 -8z"/>
<path d="M1580 1385 c-7 -9 -11 -17 -9 -20 3 -2 10 5 17 15 14 24 10 26 -8 5z"/>
<path d="M1440 690 c-9 -6 -10 -10 -3 -10 6 0 15 5 18 10 8 12 4 12 -15 0z"/>
<path d="M1394 622 c3 -6 -2 -15 -11 -21 -10 -5 -15 -12 -12 -15 3 -4 14 2 23
13 13 14 14 21 5 27 -7 4 -10 3 -5 -4z"/>
<path d="M1253 574 c0 -14 26 -28 35 -19 3 3 0 5 -7 5 -7 0 -10 4 -7 9 3 5 0
11 -7 14 -8 3 -14 -1 -14 -9z"/>
<path d="M1293 505 c0 -8 4 -12 9 -9 5 3 6 10 3 15 -9 13 -12 11 -12 -6z"/>
<path d="M1850 2481 c-7 -15 -7 -19 5 -17 8 1 18 6 22 11 5 4 2 5 -6 0 -11 -6
-13 -4 -8 8 9 23 0 21 -13 -2z"/>
<path d="M1860 2321 c-8 -6 -17 -8 -20 -6 -3 2 -6 -10 -7 -26 -2 -21 1 -28 10
-22 7 4 7 0 -2 -10 -9 -11 -10 -17 -2 -17 6 0 11 -5 11 -11 0 -5 -5 -7 -12 -3
-7 4 -8 3 -4 -5 6 -9 11 -9 21 -1 10 8 15 7 18 -7 3 -10 5 12 4 50 -1 37 -2
67 -2 67 0 0 -7 -4 -15 -9z"/>
<path d="M1726 1762 c-3 -5 1 -9 9 -9 8 0 12 4 9 9 -3 4 -7 8 -9 8 -2 0 -6 -4
-9 -8z"/>
<path d="M1790 1069 c0 -5 5 -7 10 -4 6 3 10 8 10 11 0 2 -4 4 -10 4 -5 0 -10
-5 -10 -11z"/>
<path d="M1864 1016 c1 -8 5 -18 8 -22 4 -3 5 1 4 10 -1 8 -5 18 -8 22 -4 3
-5 -1 -4 -10z"/>
<path d="M1860 966 c0 -8 -5 -18 -12 -22 -6 -4 -8 -3 -4 4 3 6 3 13 -2 16 -5
3 -9 0 -10 -7 0 -7 -3 -27 -6 -45 -3 -20 -1 -30 5 -26 6 3 13 -3 16 -15 3 -12
12 -21 20 -21 11 0 14 14 12 65 -1 36 -6 65 -11 65 -4 0 -8 -6 -8 -14z"/>
<path d="M1860 829 c0 -5 5 -7 10 -4 6 3 10 8 10 11 0 2 -4 4 -10 4 -5 0 -10
-5 -10 -11z"/>
<path d="M1756 612 c-3 -5 1 -9 9 -9 8 0 12 4 9 9 -3 4 -7 8 -9 8 -2 0 -6 -4
-9 -8z"/>
<path d="M970 409 c0 -5 5 -7 10 -4 6 3 10 8 10 11 0 2 -4 4 -10 4 -5 0 -10
-5 -10 -11z"/>
</g>
</svg>
